<?xml version="1.0" encoding="UTF-8"?>
<svg xmlns="http://www.w3.org/2000/svg" xmlns:xlink="http://www.w3.org/1999/xlink" width="30pt" height="30.000001pt" viewBox="0 0 30 30.000001" version="1.2">
<defs>
<clipPath id="clip1">
  <path d="M 4.273438 2.902344 L 26.046875 2.902344 L 26.046875 26.128906 L 4.273438 26.128906 Z M 4.273438 2.902344 "/>
</clipPath>
<clipPath id="clip2">
  <path d="M 20.515625 14.515625 L 28.355469 14.515625 L 28.355469 22.355469 L 20.515625 22.355469 Z M 20.515625 14.515625 "/>
</clipPath>
</defs>
<g id="surface1">
<g clip-path="url(#clip1)" clip-rule="nonzero">
<path style=" stroke:none;fill-rule:nonzero;fill:rgb(0%,0%,0%);fill-opacity:1;" d="M 15.328125 2.902344 C 12.289062 2.902344 9.800781 5.316406 9.800781 8.261719 L 6.117188 8.261719 C 5.628906 8.261719 5.226562 8.632812 5.195312 9.109375 L 4.277344 25.1875 C 4.261719 25.429688 4.355469 25.675781 4.527344 25.851562 C 4.699219 26.03125 4.945312 26.128906 5.195312 26.128906 L 25.457031 26.128906 C 25.707031 26.128906 25.953125 26.03125 26.125 25.851562 C 26.296875 25.675781 26.390625 25.429688 26.378906 25.1875 L 25.457031 9.109375 C 25.429688 8.632812 25.023438 8.261719 24.535156 8.261719 L 20.851562 8.261719 C 20.851562 5.316406 18.363281 2.902344 15.328125 2.902344 Z M 15.328125 4.691406 C 17.355469 4.691406 19.011719 6.296875 19.011719 8.261719 L 11.644531 8.261719 C 11.644531 6.296875 13.296875 4.691406 15.328125 4.691406 Z M 6.988281 10.050781 L 9.800781 10.050781 L 9.800781 13.621094 L 11.644531 13.621094 L 11.644531 10.050781 L 19.011719 10.050781 L 19.011719 13.621094 L 20.851562 13.621094 L 20.851562 10.050781 L 23.664062 10.050781 L 24.476562 24.34375 L 6.175781 24.34375 Z M 6.988281 10.050781 "/>
</g>
<path style=" stroke:none;fill-rule:nonzero;fill:rgb(100%,100%,100%);fill-opacity:1;" d="M 24.433594 14.515625 C 24.179688 14.515625 23.921875 14.542969 23.671875 14.589844 C 23.417969 14.640625 23.171875 14.714844 22.9375 14.816406 C 22.699219 14.914062 22.472656 15.035156 22.257812 15.175781 C 22.042969 15.320312 21.847656 15.480469 21.664062 15.664062 C 21.480469 15.847656 21.320312 16.042969 21.175781 16.257812 C 21.035156 16.472656 20.914062 16.699219 20.816406 16.9375 C 20.714844 17.171875 20.640625 17.417969 20.589844 17.671875 C 20.542969 17.921875 20.515625 18.179688 20.515625 18.433594 C 20.515625 18.691406 20.542969 18.949219 20.589844 19.199219 C 20.640625 19.453125 20.714844 19.699219 20.816406 19.933594 C 20.914062 20.171875 21.035156 20.398438 21.175781 20.613281 C 21.320312 20.828125 21.480469 21.023438 21.664062 21.207031 C 21.847656 21.390625 22.042969 21.550781 22.257812 21.695312 C 22.472656 21.835938 22.699219 21.957031 22.9375 22.054688 C 23.171875 22.15625 23.417969 22.230469 23.671875 22.28125 C 23.921875 22.328125 24.179688 22.355469 24.433594 22.355469 C 24.691406 22.355469 24.949219 22.328125 25.199219 22.28125 C 25.453125 22.230469 25.699219 22.15625 25.933594 22.054688 C 26.171875 21.957031 26.398438 21.835938 26.613281 21.695312 C 26.828125 21.550781 27.023438 21.390625 27.207031 21.207031 C 27.390625 21.023438 27.550781 20.828125 27.695312 20.613281 C 27.835938 20.398438 27.957031 20.171875 28.054688 19.933594 C 28.15625 19.699219 28.230469 19.453125 28.28125 19.199219 C 28.328125 18.949219 28.355469 18.691406 28.355469 18.433594 C 28.355469 18.179688 28.328125 17.921875 28.28125 17.671875 C 28.230469 17.417969 28.15625 17.171875 28.054688 16.9375 C 27.957031 16.699219 27.835938 16.472656 27.695312 16.257812 C 27.550781 16.042969 27.390625 15.847656 27.207031 15.664062 C 27.023438 15.480469 26.828125 15.320312 26.613281 15.175781 C 26.398438 15.035156 26.171875 14.914062 25.933594 14.816406 C 25.699219 14.714844 25.453125 14.640625 25.199219 14.589844 C 24.949219 14.542969 24.691406 14.515625 24.433594 14.515625 Z M 24.433594 14.515625 "/>
<g clip-path="url(#clip2)" clip-rule="nonzero">
<path style=" stroke:none;fill-rule:nonzero;fill:rgb(13.729858%,12.159729%,12.548828%);fill-opacity:1;" d="M 24.433594 14.515625 C 22.273438 14.515625 20.515625 16.273438 20.515625 18.433594 C 20.515625 20.597656 22.273438 22.355469 24.433594 22.355469 C 26.597656 22.355469 28.355469 20.597656 28.355469 18.433594 C 28.355469 16.273438 26.597656 14.515625 24.433594 14.515625 Z M 24.433594 21.785156 C 22.585938 21.785156 21.085938 20.285156 21.085938 18.433594 C 21.085938 16.585938 22.585938 15.085938 24.433594 15.085938 C 26.285156 15.085938 27.785156 16.585938 27.785156 18.433594 C 27.785156 20.285156 26.285156 21.785156 24.433594 21.785156 Z M 24.433594 21.785156 "/>
</g>
<path style=" stroke:none;fill-rule:nonzero;fill:rgb(13.729858%,12.159729%,12.548828%);fill-opacity:1;" d="M 26.191406 18.152344 L 24.761719 18.152344 L 24.761719 16.679688 C 24.761719 16.523438 24.632812 16.394531 24.476562 16.394531 C 24.320312 16.394531 24.191406 16.523438 24.191406 16.679688 L 24.191406 18.152344 L 22.761719 18.152344 C 22.605469 18.152344 22.476562 18.277344 22.476562 18.433594 C 22.476562 18.59375 22.605469 18.71875 22.761719 18.71875 L 24.191406 18.71875 L 24.191406 20.109375 C 24.191406 20.265625 24.320312 20.394531 24.476562 20.394531 C 24.632812 20.394531 24.761719 20.265625 24.761719 20.109375 L 24.761719 18.71875 L 26.191406 18.71875 C 26.347656 18.71875 26.476562 18.59375 26.476562 18.433594 C 26.476562 18.277344 26.347656 18.152344 26.191406 18.152344 Z M 26.191406 18.152344 "/>
</g>
</svg>
