<?xml version="1.0" encoding="UTF-8"?>
<svg xmlns="http://www.w3.org/2000/svg" xmlns:xlink="http://www.w3.org/1999/xlink" width="30pt" height="30.000001pt" viewBox="0 0 30 30.000001" version="1.2">
<defs>
<clipPath id="clip1">
  <path d="M 0.484375 0 L 29.515625 0 L 29.515625 29.03125 L 0.484375 29.03125 Z M 0.484375 0 "/>
</clipPath>
<clipPath id="clip2">
  <path d="M 6 3.628906 L 22.582031 3.628906 L 22.582031 23.226562 L 6 23.226562 Z M 6 3.628906 "/>
</clipPath>
</defs>
<g id="surface1">
<g clip-path="url(#clip1)" clip-rule="nonzero">
<path style=" stroke:none;fill-rule:nonzero;fill:rgb(0%,0%,0%);fill-opacity:1;" d="M 15 0 C 6.984375 0 0.484375 6.5 0.484375 14.515625 C 0.484375 22.535156 6.984375 29.03125 15 29.03125 C 23.015625 29.03125 29.515625 22.535156 29.515625 14.515625 C 29.515625 6.5 23.015625 0 15 0 "/>
</g>
<path style=" stroke:none;fill-rule:nonzero;fill:rgb(0%,0%,0%);fill-opacity:1;" d="M 14.546875 8.9375 C 14.484375 8.285156 14.632812 7.628906 14.878906 7.023438 C 15.484375 5.558594 16.925781 4.785156 18.421875 4.507812 C 18.332031 4.4375 18.242188 4.367188 18.152344 4.300781 C 18.105469 5.796875 17.609375 7.316406 16.277344 8.136719 C 15.886719 8.378906 15.453125 8.542969 15.007812 8.640625 C 14.753906 8.695312 14.613281 8.71875 14.351562 8.722656 C 14.34375 8.722656 14.339844 8.722656 14.332031 8.722656 C 14.058594 8.71875 14.058594 9.148438 14.332031 9.148438 C 14.957031 9.15625 15.605469 8.957031 16.160156 8.691406 C 17.425781 8.074219 18.1875 6.847656 18.453125 5.496094 C 18.53125 5.101562 18.566406 4.699219 18.578125 4.300781 C 18.582031 4.152344 18.4375 4.070312 18.308594 4.09375 C 16.753906 4.386719 15.300781 5.183594 14.585938 6.640625 C 14.25 7.328125 14.066406 8.140625 14.117188 8.910156 C 14.117188 8.917969 14.121094 8.925781 14.121094 8.9375 C 14.148438 9.207031 14.574219 9.210938 14.546875 8.9375 "/>
<path style=" stroke:none;fill-rule:nonzero;fill:rgb(0%,0%,0%);fill-opacity:1;" d="M 22.394531 11.269531 C 22.671875 11.269531 22.671875 10.839844 22.394531 10.839844 C 22.121094 10.839844 22.121094 11.269531 22.394531 11.269531 "/>
<path style=" stroke:none;fill-rule:nonzero;fill:rgb(0%,0%,0%);fill-opacity:1;" d="M 7.886719 10.914062 C 8.0625 10.710938 8.25 10.519531 8.457031 10.347656 C 8.542969 10.269531 8.535156 10.121094 8.457031 10.042969 C 8.367188 9.957031 8.242188 9.96875 8.152344 10.042969 C 7.949219 10.21875 7.757812 10.410156 7.582031 10.613281 C 7.40625 10.820312 7.707031 11.125 7.886719 10.914062 "/>
<path style=" stroke:none;fill-rule:nonzero;fill:rgb(0%,0%,0%);fill-opacity:1;" d="M 8.921875 10.003906 C 9.871094 9.421875 10.980469 9.265625 12.070312 9.449219 C 12.402344 9.507812 12.730469 9.597656 13.046875 9.710938 C 13.1875 9.761719 13.1875 9.757812 13.292969 9.816406 C 13.933594 10.179688 14.734375 10.277344 15.453125 10.179688 C 15.753906 10.136719 16.042969 10.0625 16.324219 9.960938 C 16.609375 9.859375 16.878906 9.710938 17.164062 9.613281 C 17.625 9.449219 18.105469 9.351562 18.59375 9.332031 C 19.574219 9.289062 20.535156 9.621094 21.304688 10.222656 C 21.554688 10.417969 21.785156 10.640625 21.992188 10.882812 C 22.027344 10.921875 22.058594 10.960938 22.09375 11 C 22.136719 11.054688 22.097656 11.007812 22.148438 11.074219 C 22.167969 11.101562 22.191406 11.132812 22.210938 11.160156 C 22.253906 11.058594 22.296875 10.953125 22.339844 10.847656 C 21.640625 11.039062 21.050781 11.640625 20.6875 12.238281 C 20.265625 12.941406 20.097656 13.769531 20.0625 14.578125 C 20.015625 15.542969 20.160156 16.542969 20.667969 17.382812 C 21.164062 18.191406 22.070312 18.839844 23.027344 18.941406 C 22.960938 18.851562 22.890625 18.761719 22.820312 18.671875 C 22.273438 20.128906 21.339844 21.582031 20.289062 22.753906 C 19.921875 23.164062 19.496094 23.492188 18.957031 23.644531 C 18.566406 23.757812 18.144531 23.753906 17.746094 23.675781 C 17.34375 23.597656 17.011719 23.421875 16.644531 23.25 C 15.929688 22.90625 15.101562 22.8125 14.320312 22.925781 C 13.679688 23.015625 13.136719 23.367188 12.523438 23.546875 C 12.171875 23.652344 11.800781 23.726562 11.429688 23.707031 C 11.355469 23.703125 11.175781 23.679688 11.09375 23.667969 C 10.886719 23.632812 10.71875 23.550781 10.539062 23.441406 C 10.039062 23.140625 9.625 22.683594 9.261719 22.234375 C 8.226562 20.964844 7.484375 19.429688 7 17.875 C 6.503906 16.269531 6.273438 14.484375 6.789062 12.855469 C 6.945312 12.359375 7.191406 11.898438 7.476562 11.464844 C 7.628906 11.230469 7.257812 11.019531 7.105469 11.246094 C 6.609375 12.007812 6.28125 12.835938 6.152344 13.738281 C 6.027344 14.585938 6.066406 15.441406 6.191406 16.289062 C 6.449219 17.996094 7.113281 19.664062 7.992188 21.144531 C 8.371094 21.78125 8.800781 22.390625 9.300781 22.9375 C 9.667969 23.335938 10.089844 23.726562 10.585938 23.949219 C 10.6875 23.996094 10.785156 24.035156 10.890625 24.0625 C 10.933594 24.074219 10.976562 24.078125 11.019531 24.085938 C 11.042969 24.089844 11.230469 24.121094 11.148438 24.09375 C 11.300781 24.140625 11.480469 24.140625 11.640625 24.136719 C 12.097656 24.121094 12.546875 24 12.976562 23.851562 C 13.28125 23.746094 13.558594 23.582031 13.863281 23.476562 C 14.160156 23.371094 14.472656 23.320312 14.785156 23.304688 C 15.320312 23.28125 16.03125 23.371094 16.480469 23.644531 C 16.949219 23.933594 17.507812 24.097656 18.054688 24.148438 C 19.089844 24.246094 19.96875 23.75 20.644531 23 C 21.390625 22.167969 22.015625 21.230469 22.546875 20.246094 C 22.804688 19.777344 23.042969 19.289062 23.234375 18.785156 C 23.289062 18.644531 23.152344 18.527344 23.027344 18.515625 C 23.023438 18.515625 23.09375 18.527344 23.019531 18.515625 C 22.960938 18.503906 22.90625 18.492188 22.847656 18.476562 C 22.664062 18.433594 22.484375 18.371094 22.3125 18.289062 C 21.742188 18.027344 21.28125 17.59375 20.96875 17.046875 C 20.476562 16.183594 20.417969 15.128906 20.519531 14.160156 C 20.59375 13.449219 20.820312 12.714844 21.265625 12.144531 C 21.492188 11.851562 21.761719 11.613281 22.078125 11.429688 C 22.128906 11.398438 22.183594 11.371094 22.238281 11.34375 C 22.261719 11.332031 22.285156 11.324219 22.308594 11.3125 C 22.363281 11.289062 22.273438 11.324219 22.339844 11.300781 C 22.375 11.285156 22.414062 11.269531 22.453125 11.261719 C 22.582031 11.226562 22.65625 11.0625 22.578125 10.945312 C 22.128906 10.253906 21.410156 9.6875 20.671875 9.335938 C 19.957031 8.992188 19.167969 8.855469 18.378906 8.914062 C 17.882812 8.953125 17.394531 9.074219 16.929688 9.242188 C 16.65625 9.339844 16.402344 9.476562 16.132812 9.574219 C 15.832031 9.683594 15.515625 9.75 15.195312 9.777344 C 14.652344 9.820312 14.078125 9.734375 13.585938 9.488281 C 13.390625 9.390625 13.195312 9.308594 12.984375 9.238281 C 11.574219 8.773438 9.988281 8.847656 8.707031 9.636719 C 8.472656 9.78125 8.6875 10.152344 8.921875 10.003906 "/>
<g clip-path="url(#clip2)" clip-rule="nonzero">
<path style=" stroke:none;fill-rule:nonzero;fill:rgb(100%,100%,100%);fill-opacity:1;" d="M 19.96875 14.015625 C 20 16.972656 22.542969 17.957031 22.570312 17.96875 C 22.546875 18.039062 22.164062 19.371094 21.230469 20.75 C 20.421875 21.941406 19.585938 23.125 18.265625 23.152344 C 16.96875 23.175781 16.550781 22.375 15.070312 22.375 C 13.585938 22.375 13.125 23.125 11.894531 23.175781 C 10.621094 23.222656 9.652344 21.886719 8.839844 20.699219 C 7.175781 18.273438 5.902344 13.84375 7.609375 10.851562 C 8.457031 9.367188 9.972656 8.425781 11.617188 8.402344 C 12.867188 8.378906 14.050781 9.25 14.8125 9.25 C 15.578125 9.25 17.011719 8.203125 18.523438 8.355469 C 19.152344 8.382812 20.925781 8.613281 22.0625 10.292969 C 21.972656 10.351562 19.949219 11.539062 19.96875 14.015625 M 17.535156 6.75 C 18.210938 5.921875 18.664062 4.773438 18.539062 3.628906 C 17.566406 3.667969 16.386719 4.285156 15.6875 5.109375 C 15.0625 5.84375 14.511719 7.011719 14.660156 8.132812 C 15.746094 8.21875 16.855469 7.578125 17.535156 6.75 "/>
</g>
</g>
</svg>
