<?xml version="1.0" encoding="UTF-8"?>
<svg xmlns="http://www.w3.org/2000/svg" xmlns:xlink="http://www.w3.org/1999/xlink" width="30pt" height="30.000001pt" viewBox="0 0 30 30.000001" version="1.2">
<defs>
<clipPath id="clip1">
  <path d="M 0.484375 6.949219 L 29.515625 6.949219 L 29.515625 22.191406 L 0.484375 22.191406 Z M 0.484375 6.949219 "/>
</clipPath>
</defs>
<g id="surface1">
<g clip-path="url(#clip1)" clip-rule="nonzero">
<path style=" stroke:none;fill-rule:nonzero;fill:rgb(0%,0%,0%);fill-opacity:1;" d="M 14.9375 22.273438 C 14.769531 22.273438 14.625 22.210938 14.507812 22.09375 L 0.664062 8.039062 C 0.550781 7.917969 0.496094 7.773438 0.496094 7.605469 C 0.5 7.4375 0.558594 7.296875 0.675781 7.179688 C 0.792969 7.0625 0.933594 7 1.097656 6.996094 C 1.261719 6.996094 1.402344 7.050781 1.523438 7.164062 L 14.9375 20.78125 L 28.351562 7.164062 C 28.472656 7.050781 28.613281 6.996094 28.777344 6.996094 C 28.941406 7 29.082031 7.0625 29.199219 7.179688 C 29.3125 7.296875 29.375 7.4375 29.375 7.605469 C 29.378906 7.773438 29.324219 7.917969 29.210938 8.039062 L 15.371094 22.09375 C 15.25 22.210938 15.105469 22.273438 14.9375 22.273438 Z M 14.9375 22.273438 "/>
</g>
</g>
</svg>
