<?xml version="1.0" encoding="UTF-8"?>
<svg xmlns="http://www.w3.org/2000/svg" xmlns:xlink="http://www.w3.org/1999/xlink" width="30pt" height="30.000001pt" viewBox="0 0 30 30.000001" version="1.2">
<defs>
<clipPath id="clip1">
  <path d="M 7.742188 0 L 22.257812 0 L 22.257812 29.03125 L 7.742188 29.03125 Z M 7.742188 0 "/>
</clipPath>
</defs>
<g id="surface1">
<g clip-path="url(#clip1)" clip-rule="nonzero">
<path style=" stroke:none;fill-rule:nonzero;fill:rgb(0%,0%,0%);fill-opacity:1;" d="M 21.734375 13.945312 L 9.917969 0.515625 C 9.515625 0.0625 8.820312 0.015625 8.363281 0.417969 C 7.90625 0.820312 7.863281 1.515625 8.265625 1.972656 L 19.441406 14.671875 L 8.269531 27.199219 C 7.867188 27.65625 7.902344 28.347656 8.359375 28.753906 C 8.570312 28.941406 8.832031 29.03125 9.089844 29.03125 C 9.394531 29.03125 9.695312 28.910156 9.914062 28.664062 L 21.730469 15.40625 C 22.101562 14.992188 22.101562 14.363281 21.734375 13.945312 Z M 21.734375 13.945312 "/>
</g>
</g>
</svg>
