<?xml version="1.0" encoding="UTF-8"?>
<svg xmlns="http://www.w3.org/2000/svg" xmlns:xlink="http://www.w3.org/1999/xlink" width="30pt" height="30.000001pt" viewBox="0 0 30 30.000001" version="1.2">
<defs>
<clipPath id="clip1">
  <path d="M 1.28125 0.796875 L 28.863281 0.796875 L 28.863281 28.378906 L 1.28125 28.378906 Z M 1.28125 0.796875 "/>
</clipPath>
<clipPath id="clip2">
  <path d="M 3.386719 2.902344 L 26.613281 2.902344 L 26.613281 26.128906 L 3.386719 26.128906 Z M 3.386719 2.902344 "/>
</clipPath>
</defs>
<g id="surface1">
<g clip-path="url(#clip1)" clip-rule="nonzero">
<path style=" stroke:none;fill-rule:nonzero;fill:rgb(100%,100%,100%);fill-opacity:1;" d="M 15.074219 0.796875 C 7.472656 0.796875 1.28125 6.988281 1.28125 14.589844 C 1.28125 22.1875 7.472656 28.378906 15.074219 28.378906 C 22.671875 28.378906 28.863281 22.1875 28.863281 14.589844 C 28.863281 6.988281 22.671875 0.796875 15.074219 0.796875 Z M 15.074219 3.554688 C 21.183594 3.554688 26.105469 8.480469 26.105469 14.589844 C 26.105469 20.699219 21.183594 25.621094 15.074219 25.621094 C 8.964844 25.621094 4.039062 20.699219 4.039062 14.589844 C 4.039062 8.480469 8.964844 3.554688 15.074219 3.554688 Z M 15.074219 3.554688 "/>
</g>
<g clip-path="url(#clip2)" clip-rule="nonzero">
<path style=" stroke:none;fill-rule:nonzero;fill:rgb(100%,100%,100%);fill-opacity:1;" d="M 15 2.902344 C 8.601562 2.902344 3.386719 8.117188 3.386719 14.515625 C 3.386719 20.914062 8.601562 26.128906 15 26.128906 C 21.398438 26.128906 26.613281 20.914062 26.613281 14.515625 C 26.613281 8.117188 21.398438 2.902344 15 2.902344 Z M 15 5.226562 C 20.144531 5.226562 24.289062 9.371094 24.289062 14.515625 C 24.289062 19.660156 20.144531 23.804688 15 23.804688 C 9.855469 23.804688 5.710938 19.660156 5.710938 14.515625 C 5.710938 9.371094 9.855469 5.226562 15 5.226562 Z M 15 5.226562 "/>
</g>
</g>
</svg>
