<?xml version="1.0" encoding="UTF-8"?>
<svg xmlns="http://www.w3.org/2000/svg" xmlns:xlink="http://www.w3.org/1999/xlink" width="30pt" height="30.000001pt" viewBox="0 0 30 30.000001" version="1.2">
<defs>
<clipPath id="clip1">
  <path d="M 6 3.628906 L 22.582031 3.628906 L 22.582031 23.226562 L 6 23.226562 Z M 6 3.628906 "/>
</clipPath>
<clipPath id="clip2">
  <path d="M 0.484375 2.902344 L 29.515625 2.902344 L 29.515625 26 L 0.484375 26 Z M 0.484375 2.902344 "/>
</clipPath>
</defs>
<g id="surface1">
<g clip-path="url(#clip1)" clip-rule="nonzero">
<path style=" stroke:none;fill-rule:nonzero;fill:rgb(100%,100%,100%);fill-opacity:1;" d="M 19.96875 14.015625 C 20 16.972656 22.542969 17.957031 22.570312 17.96875 C 22.546875 18.039062 22.164062 19.371094 21.230469 20.75 C 20.421875 21.941406 19.585938 23.125 18.265625 23.152344 C 16.96875 23.175781 16.550781 22.375 15.070312 22.375 C 13.585938 22.375 13.125 23.125 11.894531 23.175781 C 10.621094 23.222656 9.652344 21.886719 8.839844 20.699219 C 7.175781 18.273438 5.902344 13.84375 7.609375 10.851562 C 8.457031 9.367188 9.972656 8.425781 11.617188 8.402344 C 12.867188 8.378906 14.050781 9.25 14.8125 9.25 C 15.578125 9.25 17.011719 8.203125 18.523438 8.355469 C 19.152344 8.382812 20.925781 8.613281 22.0625 10.292969 C 21.972656 10.351562 19.949219 11.539062 19.96875 14.015625 M 17.535156 6.75 C 18.210938 5.921875 18.664062 4.773438 18.539062 3.628906 C 17.566406 3.667969 16.386719 4.285156 15.6875 5.109375 C 15.0625 5.84375 14.511719 7.011719 14.660156 8.132812 C 15.746094 8.21875 16.855469 7.578125 17.535156 6.75 "/>
</g>
<g clip-path="url(#clip2)" clip-rule="nonzero">
<path style=" stroke:none;fill-rule:nonzero;fill:rgb(0%,0%,0%);fill-opacity:1;" d="M 0.667969 21.019531 L 0.667969 4.484375 C 0.667969 3.578125 1.414062 2.828125 2.316406 2.828125 L 27.683594 2.828125 C 28.589844 2.828125 29.332031 3.578125 29.332031 4.484375 L 29.332031 21.019531 C 29.332031 21.933594 28.585938 22.675781 27.683594 22.675781 L 23.542969 22.675781 L 19.1875 25.871094 C 18.9375 26.058594 18.59375 26.003906 18.417969 25.757812 L 16.125 22.675781 L 2.308594 22.675781 C 1.402344 22.675781 0.667969 21.929688 0.667969 21.019531 Z M 2.316406 3.933594 C 2.023438 3.933594 1.769531 4.183594 1.769531 4.484375 L 1.769531 21.019531 C 1.769531 21.320312 2.015625 21.570312 2.308594 21.570312 L 16.417969 21.570312 C 16.589844 21.570312 16.757812 21.652344 16.859375 21.796875 L 18.980469 24.65625 L 23.035156 21.679688 C 23.132812 21.613281 23.246094 21.570312 23.359375 21.570312 L 27.683594 21.570312 C 27.976562 21.570312 28.230469 21.320312 28.230469 21.019531 L 28.230469 4.484375 C 28.230469 4.183594 27.984375 3.933594 27.683594 3.933594 Z M 24.371094 8.34375 L 5.628906 8.34375 C 5.324219 8.34375 5.078125 8.09375 5.078125 7.789062 C 5.078125 7.488281 5.324219 7.238281 5.628906 7.238281 L 24.371094 7.238281 C 24.675781 7.238281 24.921875 7.488281 24.921875 7.789062 C 24.921875 8.09375 24.675781 8.34375 24.371094 8.34375 Z M 24.371094 12.753906 L 5.628906 12.753906 C 5.324219 12.753906 5.078125 12.503906 5.078125 12.199219 C 5.078125 11.898438 5.324219 11.648438 5.628906 11.648438 L 24.371094 11.648438 C 24.675781 11.648438 24.921875 11.898438 24.921875 12.199219 C 24.921875 12.503906 24.675781 12.753906 24.371094 12.753906 Z M 15.550781 17.160156 L 5.628906 17.160156 C 5.324219 17.160156 5.078125 16.914062 5.078125 16.609375 C 5.078125 16.304688 5.324219 16.058594 5.628906 16.058594 L 15.550781 16.058594 C 15.855469 16.058594 16.101562 16.304688 16.101562 16.609375 C 16.101562 16.914062 15.855469 17.160156 15.550781 17.160156 Z M 15.550781 17.160156 "/>
</g>
</g>
</svg>
