<?xml version="1.0" encoding="UTF-8"?>
<svg xmlns="http://www.w3.org/2000/svg" xmlns:xlink="http://www.w3.org/1999/xlink" width="30pt" height="30.000001pt" viewBox="0 0 30 30.000001" version="1.2">
<defs>
<clipPath id="clip1">
  <path d="M 0.484375 0 L 29.515625 0 L 29.515625 29 L 0.484375 29 Z M 0.484375 0 "/>
</clipPath>
</defs>
<g id="surface1">
<g clip-path="url(#clip1)" clip-rule="nonzero">
<path style=" stroke:none;fill-rule:nonzero;fill:rgb(100%,100%,100%);fill-opacity:1;" d="M 17.015625 14.75 L 28.90625 2.855469 C 29.503906 2.257812 29.503906 1.285156 28.90625 0.6875 C 28.308594 0.0898438 27.339844 0.0898438 26.742188 0.6875 L 14.847656 12.582031 L 3.257812 0.992188 C 2.660156 0.394531 1.691406 0.394531 1.09375 0.992188 C 0.492188 1.589844 0.492188 2.5625 1.09375 3.160156 L 12.679688 14.75 L 1.394531 26.03125 C 0.796875 26.628906 0.796875 27.601562 1.394531 28.199219 C 1.695312 28.5 2.085938 28.648438 2.480469 28.648438 C 2.871094 28.648438 3.261719 28.496094 3.5625 28.199219 L 14.847656 16.917969 L 26.433594 28.503906 C 26.734375 28.800781 27.125 28.953125 27.519531 28.953125 C 27.910156 28.953125 28.304688 28.800781 28.601562 28.503906 C 29.199219 27.90625 29.199219 26.933594 28.601562 26.335938 Z M 17.015625 14.75 "/>
</g>
</g>
</svg>
