<?xml version="1.0" encoding="UTF-8"?>
<svg xmlns="http://www.w3.org/2000/svg" xmlns:xlink="http://www.w3.org/1999/xlink" width="30pt" height="30.000001pt" viewBox="0 0 30 30.000001" version="1.2">
<defs>
<clipPath id="clip1">
  <path d="M 2.21875 0.710938 L 29.515625 0.710938 L 29.515625 27.566406 L 2.21875 27.566406 Z M 2.21875 0.710938 "/>
</clipPath>
</defs>
<g id="surface1">
<g clip-path="url(#clip1)" clip-rule="nonzero">
<path style=" stroke:none;fill-rule:nonzero;fill:rgb(72.938538%,72.938538%,72.938538%);fill-opacity:1;" d="M 29.203125 5.027344 C 28.894531 4.226562 28.300781 3.367188 27.535156 2.605469 C 26.355469 1.4375 24.96875 0.710938 23.917969 0.710938 C 23.261719 0.710938 22.855469 0.976562 22.628906 1.199219 L 21.40625 2.410156 L 4.054688 19.613281 C 4.050781 19.617188 4.046875 19.621094 4.042969 19.625 C 4.03125 19.636719 4.023438 19.648438 4.011719 19.664062 C 3.976562 19.703125 3.945312 19.746094 3.921875 19.789062 C 3.910156 19.804688 3.902344 19.824219 3.894531 19.839844 C 3.867188 19.890625 3.847656 19.945312 3.835938 20 C 3.832031 20.007812 3.828125 20.015625 3.824219 20.027344 L 2.785156 24.679688 C 2.785156 24.683594 2.785156 24.683594 2.785156 24.683594 L 2.367188 26.542969 C 2.304688 26.824219 2.390625 27.117188 2.597656 27.320312 C 2.757812 27.480469 2.976562 27.566406 3.199219 27.566406 C 3.257812 27.566406 3.320312 27.5625 3.382812 27.546875 L 5.257812 27.136719 C 5.257812 27.132812 5.257812 27.132812 5.257812 27.132812 L 9.960938 26.105469 C 9.96875 26.101562 9.976562 26.097656 9.984375 26.097656 C 10.039062 26.082031 10.09375 26.0625 10.144531 26.035156 C 10.164062 26.027344 10.179688 26.019531 10.199219 26.011719 C 10.242188 25.984375 10.285156 25.953125 10.328125 25.917969 C 10.339844 25.910156 10.351562 25.898438 10.363281 25.886719 C 10.367188 25.882812 10.375 25.882812 10.375 25.878906 L 27.730469 8.679688 L 28.949219 7.46875 C 29.273438 7.148438 29.738281 6.40625 29.203125 5.027344 Z M 23.816406 2.410156 C 23.828125 2.40625 23.859375 2.398438 23.917969 2.398438 C 24.398438 2.398438 25.363281 2.835938 26.332031 3.796875 C 27.535156 4.992188 27.820312 6.046875 27.734375 6.289062 L 27.128906 6.890625 L 23.210938 3.007812 Z M 9.777344 24.089844 L 5.855469 20.207031 L 22.007812 4.199219 L 25.925781 8.082031 Z M 5.347656 25.390625 L 4.546875 24.59375 L 5.152344 21.890625 L 8.078125 24.792969 Z M 5.347656 25.390625 "/>
</g>
<path style="fill:none;stroke-width:1;stroke-linecap:butt;stroke-linejoin:miter;stroke:rgb(72.938538%,72.938538%,72.938538%);stroke-opacity:1;stroke-miterlimit:4;" d="M -0.00113154 -0.00119038 L 34.758347 -0.00119038 " transform="matrix(0.731028,0,0,0.673212,2.219577,27.867989)"/>
</g>
</svg>
