<?xml version="1.0" encoding="UTF-8"?>
<svg xmlns="http://www.w3.org/2000/svg" xmlns:xlink="http://www.w3.org/1999/xlink" width="30pt" height="30.000001pt" viewBox="0 0 30 30.000001" version="1.2">
<defs>
<clipPath id="clip1">
  <path d="M 2.21875 0.710938 L 29.515625 0.710938 L 29.515625 27.503906 L 2.21875 27.503906 Z M 2.21875 0.710938 "/>
</clipPath>
</defs>
<g id="surface1">
<g clip-path="url(#clip1)" clip-rule="nonzero">
<path style=" stroke:none;fill-rule:nonzero;fill:rgb(13.729858%,12.159729%,12.548828%);fill-opacity:1;" d="M 29.523438 5.015625 C 29.210938 4.21875 28.613281 3.363281 27.835938 2.601562 C 26.644531 1.4375 25.238281 0.710938 24.171875 0.710938 C 23.507812 0.710938 23.097656 0.976562 22.871094 1.199219 L 21.632812 2.40625 L 4.070312 19.566406 C 4.066406 19.570312 4.066406 19.578125 4.0625 19.578125 C 4.050781 19.589844 4.039062 19.605469 4.03125 19.617188 C 3.996094 19.65625 3.964844 19.699219 3.9375 19.746094 C 3.925781 19.761719 3.917969 19.777344 3.910156 19.796875 C 3.882812 19.847656 3.863281 19.898438 3.851562 19.953125 C 3.847656 19.964844 3.84375 19.972656 3.839844 19.980469 L 2.789062 24.625 C 2.789062 24.625 2.789062 24.628906 2.789062 24.628906 L 2.363281 26.480469 C 2.300781 26.761719 2.386719 27.054688 2.597656 27.257812 C 2.757812 27.417969 2.980469 27.503906 3.207031 27.503906 C 3.265625 27.503906 3.328125 27.496094 3.390625 27.484375 L 5.289062 27.074219 C 5.292969 27.074219 5.292969 27.074219 5.292969 27.074219 L 10.046875 26.046875 C 10.058594 26.042969 10.066406 26.039062 10.074219 26.035156 C 10.128906 26.023438 10.183594 26.003906 10.238281 25.976562 C 10.253906 25.96875 10.273438 25.960938 10.289062 25.949219 C 10.335938 25.925781 10.378906 25.894531 10.421875 25.859375 C 10.433594 25.847656 10.445312 25.839844 10.457031 25.828125 C 10.460938 25.824219 10.46875 25.824219 10.472656 25.820312 L 28.03125 8.660156 L 29.269531 7.453125 C 29.59375 7.132812 30.0625 6.394531 29.523438 5.015625 Z M 24.070312 2.40625 C 24.085938 2.402344 24.117188 2.394531 24.171875 2.394531 C 24.664062 2.394531 25.636719 2.832031 26.617188 3.789062 C 27.835938 4.984375 28.125 6.035156 28.039062 6.277344 L 27.425781 6.875 L 23.457031 3 Z M 9.863281 24.035156 L 5.898438 20.160156 L 22.242188 4.191406 L 26.207031 8.066406 Z M 5.382812 25.332031 L 4.570312 24.539062 L 5.183594 21.839844 L 8.144531 24.734375 Z M 5.382812 25.332031 "/>
</g>
<path style="fill:none;stroke-width:1;stroke-linecap:butt;stroke-linejoin:miter;stroke:rgb(0%,0%,0%);stroke-opacity:1;stroke-miterlimit:4;" d="M -0.00104925 0.000279665 L 31.997782 0.000279665 " transform="matrix(0.788359,0,0,0.788359,2.219577,27.925561)"/>
</g>
</svg>
