<?xml version="1.0" encoding="UTF-8"?>
<svg xmlns="http://www.w3.org/2000/svg" xmlns:xlink="http://www.w3.org/1999/xlink" width="30pt" height="30.000001pt" viewBox="0 0 30 30.000001" version="1.2">
<defs>
<clipPath id="clip1">
  <path d="M 0.484375 0 L 29.515625 0 L 29.515625 29.03125 L 0.484375 29.03125 Z M 0.484375 0 "/>
</clipPath>
</defs>
<g id="surface1">
<g clip-path="url(#clip1)" clip-rule="nonzero">
<path style=" stroke:none;fill-rule:nonzero;fill:rgb(0%,0%,0%);fill-opacity:1;" d="M 29.515625 14.515625 C 29.515625 22.53125 23.015625 29.03125 15 29.03125 C 6.984375 29.03125 0.484375 22.53125 0.484375 14.515625 C 0.484375 6.5 6.984375 0 15 0 C 23.015625 0 29.515625 6.5 29.515625 14.515625 "/>
</g>
<path style=" stroke:none;fill-rule:nonzero;fill:rgb(100%,100%,100%);fill-opacity:1;" d="M 23.136719 18.855469 C 23.210938 18.90625 23.226562 19.007812 23.179688 19.082031 C 23.148438 19.128906 23.097656 19.152344 23.042969 19.152344 C 23.011719 19.152344 22.980469 19.144531 22.953125 19.125 L 16.511719 14.710938 L 15.089844 15.683594 C 15.0625 15.703125 15.03125 15.710938 15 15.710938 C 14.96875 15.710938 14.9375 15.703125 14.910156 15.683594 L 13.488281 14.710938 L 7.046875 19.125 C 7.015625 19.144531 6.984375 19.152344 6.953125 19.152344 C 6.902344 19.152344 6.851562 19.128906 6.820312 19.082031 C 6.769531 19.007812 6.789062 18.90625 6.863281 18.855469 L 13.203125 14.515625 L 6.863281 10.175781 C 6.789062 10.125 6.769531 10.023438 6.820312 9.949219 C 6.871094 9.875 6.972656 9.855469 7.046875 9.90625 L 15 15.355469 L 22.953125 9.90625 C 23.027344 9.855469 23.128906 9.875 23.179688 9.949219 C 23.226562 10.023438 23.210938 10.125 23.136719 10.175781 L 16.796875 14.515625 Z M 23.234375 9.148438 L 6.765625 9.148438 C 6.433594 9.148438 6.160156 9.417969 6.160156 9.753906 L 6.160156 19.277344 C 6.160156 19.613281 6.433594 19.882812 6.765625 19.882812 L 23.234375 19.882812 C 23.566406 19.882812 23.839844 19.613281 23.839844 19.277344 L 23.839844 9.753906 C 23.839844 9.417969 23.566406 9.148438 23.234375 9.148438 "/>
</g>
</svg>
