<?xml version="1.0" encoding="UTF-8"?>
<svg xmlns="http://www.w3.org/2000/svg" xmlns:xlink="http://www.w3.org/1999/xlink" width="30pt" height="30.000001pt" viewBox="0 0 30 30.000001" version="1.2">
<defs>
<clipPath id="clip1">
  <path d="M 0.484375 3.484375 L 29.515625 3.484375 L 29.515625 24.976562 L 0.484375 24.976562 Z M 0.484375 3.484375 "/>
</clipPath>
</defs>
<g id="surface1">
<g clip-path="url(#clip1)" clip-rule="nonzero">
<path style=" stroke:none;fill-rule:nonzero;fill:rgb(12.939453%,11.369324%,11.369324%);fill-opacity:1;" d="M 16.007812 14.113281 C 15.433594 14.609375 14.566406 14.609375 13.992188 14.113281 L 4.121094 5.585938 L 25.878906 5.585938 Z M 19.859375 14.910156 L 18.390625 16.4375 L 25.4375 22.882812 L 4.480469 22.882812 L 11.171875 16.414062 L 9.660156 14.925781 L 2.632812 21.71875 L 2.632812 7.097656 L 12.566406 15.679688 C 13.238281 16.261719 14.101562 16.578125 15 16.578125 C 15.898438 16.578125 16.761719 16.261719 17.433594 15.679688 L 27.367188 7.097656 L 27.367188 21.773438 Z M 26.308594 3.488281 L 3.695312 3.488281 C 1.925781 3.488281 0.484375 4.894531 0.484375 6.617188 L 0.484375 21.847656 C 0.484375 23.574219 1.925781 24.976562 3.695312 24.976562 L 26.308594 24.976562 C 28.078125 24.976562 29.515625 23.574219 29.515625 21.847656 L 29.515625 6.617188 C 29.515625 4.894531 28.078125 3.488281 26.308594 3.488281 "/>
</g>
</g>
</svg>
