<?xml version="1.0" encoding="UTF-8"?>
<svg xmlns="http://www.w3.org/2000/svg" xmlns:xlink="http://www.w3.org/1999/xlink" width="30pt" height="30.000001pt" viewBox="0 0 30 30.000001" version="1.2">
<defs>
<clipPath id="clip1">
  <path d="M 3.386719 1.539062 L 26.613281 1.539062 L 26.613281 10 L 3.386719 10 Z M 3.386719 1.539062 "/>
</clipPath>
<clipPath id="clip2">
  <path d="M 3.386719 10 L 26.613281 10 L 26.613281 19 L 3.386719 19 Z M 3.386719 10 "/>
</clipPath>
<clipPath id="clip3">
  <path d="M 3.386719 19 L 26.613281 19 L 26.613281 27.667969 L 3.386719 27.667969 Z M 3.386719 19 "/>
</clipPath>
</defs>
<g id="surface1">
<g clip-path="url(#clip1)" clip-rule="nonzero">
<path style=" stroke:none;fill-rule:nonzero;fill:rgb(1.568604%,0.779724%,0.389099%);fill-opacity:1;" d="M 12.953125 5.003906 L 12.953125 1.539062 L 7.488281 1.539062 L 7.488281 5.003906 L 3.390625 5.003906 L 3.390625 6.386719 L 7.488281 6.386719 L 7.488281 9.851562 L 12.953125 9.851562 L 12.953125 6.386719 L 26.609375 6.386719 L 26.609375 5.003906 Z M 11.585938 8.464844 L 8.855469 8.464844 L 8.855469 2.925781 L 11.585938 2.925781 L 11.585938 8.464844 "/>
</g>
<g clip-path="url(#clip2)" clip-rule="nonzero">
<path style=" stroke:none;fill-rule:nonzero;fill:rgb(1.568604%,0.779724%,0.389099%);fill-opacity:1;" d="M 22.511719 10.542969 L 17.046875 10.542969 L 17.046875 14.003906 L 3.390625 14.003906 L 3.390625 15.390625 L 17.046875 15.390625 L 17.046875 18.851562 L 22.511719 18.851562 L 22.511719 15.390625 L 26.609375 15.390625 L 26.609375 14.003906 L 22.511719 14.003906 Z M 21.144531 17.464844 L 18.414062 17.464844 L 18.414062 11.925781 L 21.144531 11.925781 L 21.144531 17.464844 "/>
</g>
<g clip-path="url(#clip3)" clip-rule="nonzero">
<path style=" stroke:none;fill-rule:nonzero;fill:rgb(1.568604%,0.779724%,0.389099%);fill-opacity:1;" d="M 15 19.542969 L 9.539062 19.542969 L 9.539062 23.003906 L 3.390625 23.003906 L 3.390625 24.390625 L 9.539062 24.390625 L 9.539062 27.851562 L 15 27.851562 L 15 24.390625 L 26.609375 24.390625 L 26.609375 23.003906 L 15 23.003906 Z M 13.632812 26.46875 L 10.902344 26.46875 L 10.902344 20.929688 L 13.632812 20.929688 L 13.632812 26.46875 "/>
</g>
</g>
</svg>
