<?xml version="1.0" encoding="UTF-8"?>
<svg xmlns="http://www.w3.org/2000/svg" xmlns:xlink="http://www.w3.org/1999/xlink" width="30pt" height="30.000001pt" viewBox="0 0 30 30.000001" version="1.2">
<defs>
<clipPath id="clip1">
  <path d="M 0.484375 0 L 29.515625 0 L 29.515625 29.03125 L 0.484375 29.03125 Z M 0.484375 0 "/>
</clipPath>
</defs>
<g id="surface1">
<path style=" stroke:none;fill-rule:nonzero;fill:rgb(0%,0%,0%);fill-opacity:1;" d="M 15 11.488281 C 13.332031 11.488281 11.972656 12.847656 11.972656 14.515625 C 11.972656 16.183594 13.332031 17.542969 15 17.542969 C 16.667969 17.542969 18.027344 16.183594 18.027344 14.515625 C 18.027344 12.847656 16.667969 11.488281 15 11.488281 Z M 15 11.488281 "/>
<path style=" stroke:none;fill-rule:nonzero;fill:rgb(0%,0%,0%);fill-opacity:1;" d="M 19.355469 9.769531 C 19.140625 9.769531 18.964844 9.945312 18.964844 10.160156 C 18.964844 10.378906 19.140625 10.554688 19.355469 10.554688 C 19.570312 10.554688 19.746094 10.378906 19.746094 10.160156 C 19.746094 9.945312 19.570312 9.769531 19.355469 9.769531 Z M 19.355469 9.769531 "/>
<g clip-path="url(#clip1)" clip-rule="nonzero">
<path style=" stroke:none;fill-rule:nonzero;fill:rgb(0%,0%,0%);fill-opacity:1;" d="M 15 0 C 6.996094 0 0.484375 6.511719 0.484375 14.515625 C 0.484375 22.519531 6.996094 29.03125 15 29.03125 C 23.003906 29.03125 29.515625 22.519531 29.515625 14.515625 C 29.515625 6.511719 23.003906 0 15 0 Z M 23.292969 17.128906 C 23.292969 20.261719 20.746094 22.8125 17.613281 22.8125 L 12.386719 22.8125 C 9.253906 22.8125 6.703125 20.261719 6.703125 17.128906 L 6.703125 11.902344 C 6.703125 8.769531 9.253906 6.222656 12.386719 6.222656 L 17.613281 6.222656 C 20.746094 6.222656 23.292969 8.769531 23.292969 11.902344 Z M 23.292969 17.128906 "/>
</g>
<path style=" stroke:none;fill-rule:nonzero;fill:rgb(0%,0%,0%);fill-opacity:1;" d="M 17.613281 7.410156 L 12.386719 7.410156 C 9.910156 7.410156 7.894531 9.425781 7.894531 11.902344 L 7.894531 17.128906 C 7.894531 19.605469 9.910156 21.621094 12.386719 21.621094 L 17.613281 21.621094 C 20.089844 21.621094 22.105469 19.605469 22.105469 17.128906 L 22.105469 11.902344 C 22.105469 9.425781 20.089844 7.410156 17.613281 7.410156 Z M 15 18.730469 C 12.675781 18.730469 10.785156 16.839844 10.785156 14.515625 C 10.785156 12.191406 12.675781 10.300781 15 10.300781 C 17.324219 10.300781 19.214844 12.191406 19.214844 14.515625 C 19.214844 16.839844 17.324219 18.730469 15 18.730469 Z M 19.355469 11.742188 C 18.484375 11.742188 17.773438 11.03125 17.773438 10.160156 C 17.773438 9.289062 18.484375 8.582031 19.355469 8.582031 C 20.226562 8.582031 20.933594 9.289062 20.933594 10.160156 C 20.933594 11.03125 20.226562 11.742188 19.355469 11.742188 Z M 19.355469 11.742188 "/>
</g>
</svg>
