<?xml version="1.0" encoding="UTF-8"?>
<svg xmlns="http://www.w3.org/2000/svg" xmlns:xlink="http://www.w3.org/1999/xlink" width="30pt" height="30.000001pt" viewBox="0 0 30 30.000001" version="1.2">
<defs>
<clipPath id="clip1">
  <path d="M 5.871094 0 L 23.917969 0 L 23.917969 29.03125 L 5.871094 29.03125 Z M 5.871094 0 "/>
</clipPath>
</defs>
<g id="surface1">
<g clip-path="url(#clip1)" clip-rule="nonzero">
<path style=" stroke:none;fill-rule:nonzero;fill:rgb(11.759949%,11.759949%,11.369324%);fill-opacity:1;" d="M 22.765625 23.460938 C 22.765625 23.828125 22.46875 24.125 22.109375 24.125 L 7.839844 24.125 C 7.386719 24.125 7.023438 23.757812 7.023438 23.300781 L 7.023438 4.167969 C 7.023438 3.710938 7.386719 3.34375 7.839844 3.34375 L 21.949219 3.34375 C 22.402344 3.34375 22.765625 3.710938 22.765625 4.167969 Z M 14.894531 27.863281 C 14.1875 27.863281 13.613281 27.285156 13.613281 26.566406 C 13.613281 25.851562 14.1875 25.269531 14.894531 25.269531 C 15.601562 25.269531 16.175781 25.851562 16.175781 26.566406 C 16.175781 27.285156 15.601562 27.863281 14.894531 27.863281 Z M 12.773438 1.386719 L 17.015625 1.386719 C 17.09375 1.386719 17.167969 1.417969 17.21875 1.46875 C 17.269531 1.523438 17.304688 1.59375 17.304688 1.675781 C 17.304688 1.835938 17.175781 1.964844 17.015625 1.964844 L 12.773438 1.964844 C 12.613281 1.964844 12.484375 1.835938 12.484375 1.675781 C 12.484375 1.515625 12.613281 1.386719 12.773438 1.386719 Z M 21.835938 0.0078125 L 7.953125 0.0078125 C 6.804688 0.0078125 5.875 0.949219 5.875 2.113281 L 5.875 26.917969 C 5.875 28.082031 6.804688 29.019531 7.953125 29.019531 L 21.839844 29.019531 C 22.984375 29.019531 23.917969 28.082031 23.917969 26.917969 L 23.917969 2.113281 C 23.917969 0.949219 22.984375 0.0078125 21.835938 0.0078125 "/>
</g>
</g>
</svg>
