<?xml version="1.0" encoding="UTF-8"?>
<svg xmlns="http://www.w3.org/2000/svg" xmlns:xlink="http://www.w3.org/1999/xlink" width="30pt" height="30.000001pt" viewBox="0 0 30 30.000001" version="1.2">
<defs>
<clipPath id="clip1">
  <path d="M 0.484375 0.234375 L 29.515625 0.234375 L 29.515625 28.296875 L 0.484375 28.296875 Z M 0.484375 0.234375 "/>
</clipPath>
</defs>
<g id="surface1">
<g clip-path="url(#clip1)" clip-rule="nonzero">
<path style=" stroke:none;fill-rule:nonzero;fill:rgb(0%,0%,0%);fill-opacity:1;" d="M 28.554688 21.851562 C 27.851562 21.054688 24.515625 17.773438 24.207031 17.472656 C 24.050781 17.296875 23.335938 16.5625 22.324219 16.5625 C 21.875 16.5625 21.441406 16.707031 21.046875 17 C 20.308594 17.539062 19.144531 18.574219 18.492188 19.164062 C 17.691406 18.726562 15.929688 17.722656 14.789062 16.800781 C 13.121094 15.453125 11.628906 13.699219 10.25 11.472656 L 9.867188 10.761719 C 10.582031 9.996094 11.597656 8.890625 12.132812 8.183594 C 13.121094 6.882812 12.261719 5.597656 11.652344 5.078125 C 11.332031 4.765625 8.003906 1.5 7.195312 0.804688 C 6.746094 0.421875 6.199219 0.21875 5.609375 0.21875 C 5.128906 0.21875 4.78125 0.355469 4.714844 0.378906 L 4.417969 0.558594 C 2.710938 1.632812 0.777344 2.855469 0.667969 7.648438 C 0.660156 12.480469 4.539062 17.199219 7.761719 20.28125 C 11.140625 23.921875 16.285156 28.265625 21.585938 28.265625 L 21.609375 28.265625 C 26.472656 28.15625 27.714844 26.257812 28.808594 24.582031 L 28.933594 24.390625 L 28.988281 24.289062 C 29.195312 23.800781 29.339844 22.738281 28.554688 21.851562 Z M 27.753906 23.734375 L 27.667969 23.863281 C 26.625 25.460938 25.722656 26.84375 21.59375 26.9375 L 21.585938 27.601562 L 21.585938 26.9375 C 16.527344 26.9375 11.378906 22.203125 8.734375 19.355469 C 5.667969 16.425781 2.015625 12.015625 2.019531 7.664062 C 2.113281 3.589844 3.519531 2.703125 5.148438 1.675781 L 5.277344 1.59375 C 5.339844 1.578125 5.460938 1.550781 5.609375 1.550781 C 5.875 1.550781 6.105469 1.632812 6.308594 1.808594 C 7.105469 2.492188 10.679688 6 10.714844 6.035156 L 10.757812 6.078125 C 10.839844 6.144531 11.539062 6.746094 11.050781 7.390625 C 10.625 7.945312 9.722656 8.964844 8.550781 10.199219 L 8.222656 10.546875 L 9.078125 12.128906 C 10.554688 14.519531 12.140625 16.382812 13.933594 17.828125 C 15.539062 19.128906 18.164062 20.507812 18.277344 20.566406 L 18.703125 20.789062 L 19.054688 20.464844 C 19.371094 20.175781 20.984375 18.707031 21.855469 18.066406 C 22.015625 17.949219 22.167969 17.890625 22.328125 17.890625 C 22.707031 17.890625 23.082031 18.222656 23.191406 18.347656 L 23.234375 18.394531 C 23.269531 18.429688 26.84375 21.941406 27.535156 22.722656 C 27.898438 23.136719 27.796875 23.59375 27.753906 23.734375 Z M 27.753906 23.734375 "/>
</g>
</g>
</svg>
