<?xml version="1.0" encoding="UTF-8"?>
<svg xmlns="http://www.w3.org/2000/svg" xmlns:xlink="http://www.w3.org/1999/xlink" width="30pt" height="30.000001pt" viewBox="0 0 30 30.000001" version="1.2">
<defs>
<clipPath id="clip1">
  <path d="M 0.484375 0 L 29.515625 0 L 29.515625 29.03125 L 0.484375 29.03125 Z M 0.484375 0 "/>
</clipPath>
</defs>
<g id="surface1">
<g clip-path="url(#clip1)" clip-rule="nonzero">
<path style=" stroke:none;fill-rule:nonzero;fill:rgb(0%,0%,0%);fill-opacity:1;" d="M 15 0 C 6.984375 0 0.484375 6.5 0.484375 14.515625 C 0.484375 20.667969 4.308594 25.917969 9.710938 28.035156 C 9.585938 26.886719 9.46875 25.125 9.761719 23.871094 C 10.023438 22.738281 11.460938 16.65625 11.460938 16.65625 C 11.460938 16.65625 11.027344 15.785156 11.027344 14.5 C 11.027344 12.480469 12.199219 10.976562 13.65625 10.976562 C 14.894531 10.976562 15.492188 11.90625 15.492188 13.019531 C 15.492188 14.265625 14.699219 16.128906 14.289062 17.851562 C 13.945312 19.296875 15.011719 20.476562 16.4375 20.476562 C 19.019531 20.476562 21 17.753906 21 13.828125 C 21 10.351562 18.503906 7.921875 14.9375 7.921875 C 10.808594 7.921875 8.382812 11.019531 8.382812 14.222656 C 8.382812 15.46875 8.863281 16.808594 9.464844 17.535156 C 9.582031 17.679688 9.597656 17.804688 9.5625 17.953125 C 9.453125 18.410156 9.210938 19.394531 9.160156 19.597656 C 9.097656 19.863281 8.949219 19.921875 8.675781 19.792969 C 6.863281 18.945312 5.730469 16.296875 5.730469 14.167969 C 5.730469 9.589844 9.058594 5.382812 15.320312 5.382812 C 20.359375 5.382812 24.269531 8.972656 24.269531 13.765625 C 24.269531 18.769531 21.117188 22.796875 16.738281 22.796875 C 15.269531 22.796875 13.886719 22.03125 13.410156 21.128906 C 13.410156 21.128906 12.683594 23.902344 12.507812 24.582031 C 12.179688 25.839844 11.296875 27.425781 10.703125 28.386719 C 12.058594 28.804688 13.503906 29.03125 15 29.03125 C 23.015625 29.03125 29.515625 22.53125 29.515625 14.515625 C 29.515625 6.5 23.015625 0 15 0 Z M 15 0 "/>
</g>
</g>
</svg>
