<?xml version="1.0" encoding="UTF-8"?>
<svg xmlns="http://www.w3.org/2000/svg" xmlns:xlink="http://www.w3.org/1999/xlink" width="30pt" height="30.000001pt" viewBox="0 0 30 30.000001" version="1.2">
<defs>
<clipPath id="clip1">
  <path d="M 13 0 L 17 0 L 17 29.03125 L 13 29.03125 Z M 13 0 "/>
</clipPath>
<clipPath id="clip2">
  <path d="M 0.484375 13 L 29.515625 13 L 29.515625 16 L 0.484375 16 Z M 0.484375 13 "/>
</clipPath>
</defs>
<g id="surface1">
<g clip-path="url(#clip1)" clip-rule="nonzero">
<path style=" stroke:none;fill-rule:nonzero;fill:rgb(13.729858%,12.159729%,12.548828%);fill-opacity:1;" d="M 14.992188 29.023438 C 14.289062 29.023438 13.714844 28.453125 13.714844 27.746094 L 13.714844 1.273438 C 13.714844 0.566406 14.289062 -0.00390625 14.992188 -0.00390625 C 15.699219 -0.00390625 16.273438 0.566406 16.273438 1.273438 L 16.273438 27.746094 C 16.273438 28.453125 15.699219 29.023438 14.992188 29.023438 "/>
</g>
<g clip-path="url(#clip2)" clip-rule="nonzero">
<path style=" stroke:none;fill-rule:nonzero;fill:rgb(13.729858%,12.159729%,12.548828%);fill-opacity:1;" d="M 28.230469 15.789062 L 1.757812 15.789062 C 1.050781 15.789062 0.480469 15.214844 0.480469 14.511719 C 0.480469 13.804688 1.050781 13.230469 1.757812 13.230469 L 28.230469 13.230469 C 28.9375 13.230469 29.507812 13.804688 29.507812 14.511719 C 29.507812 15.214844 28.9375 15.789062 28.230469 15.789062 "/>
</g>
</g>
</svg>
