<?xml version="1.0" encoding="UTF-8"?>
<svg xmlns="http://www.w3.org/2000/svg" xmlns:xlink="http://www.w3.org/1999/xlink" width="30pt" height="30.000001pt" viewBox="0 0 30 30.000001" version="1.2">
<defs>
<clipPath id="clip1">
  <path d="M 0.484375 0 L 29.515625 0 L 29.515625 29.03125 L 0.484375 29.03125 Z M 0.484375 0 "/>
</clipPath>
<clipPath id="clip2">
  <path d="M 1.371094 2.027344 L 28.949219 2.027344 L 28.949219 26.414062 L 1.371094 26.414062 Z M 1.371094 2.027344 "/>
</clipPath>
</defs>
<g id="surface1">
<g clip-path="url(#clip1)" clip-rule="nonzero">
<path style=" stroke:none;fill-rule:nonzero;fill:rgb(100%,100%,100%);fill-opacity:1;" d="M 0.484375 0 L 29.515625 0 L 29.515625 36.289062 L 0.484375 36.289062 Z M 0.484375 0 "/>
<path style=" stroke:none;fill-rule:nonzero;fill:rgb(100%,100%,100%);fill-opacity:1;" d="M 0.484375 0 L 29.515625 0 L 29.515625 29.03125 L 0.484375 29.03125 Z M 0.484375 0 "/>
<path style=" stroke:none;fill-rule:nonzero;fill:rgb(100%,100%,100%);fill-opacity:1;" d="M 0.484375 0 L 29.515625 0 L 29.515625 29.03125 L 0.484375 29.03125 Z M 0.484375 0 "/>
</g>
<g clip-path="url(#clip2)" clip-rule="nonzero">
<path style=" stroke:none;fill-rule:nonzero;fill:rgb(0%,0%,0%);fill-opacity:1;" d="M 7.214844 2.019531 C 6.945312 2.015625 6.703125 2.09375 6.492188 2.25 C 6.492188 2.25 1.375 5.96875 1.375 13.113281 L 1.375 24.195312 C 1.375 25.421875 2.414062 26.414062 3.699219 26.414062 L 10.675781 26.414062 C 11.960938 26.414062 13 25.421875 13 24.195312 L 13 15.328125 C 13 14.105469 11.960938 13.113281 10.675781 13.113281 L 5.976562 13.113281 C 5.949219 11.136719 6.152344 6.917969 8.144531 3.773438 C 8.417969 3.410156 8.449219 3.027344 8.238281 2.628906 C 8.023438 2.226562 7.683594 2.023438 7.214844 2.019531 Z M 23.492188 2.019531 C 23.222656 2.015625 22.980469 2.09375 22.769531 2.25 C 22.769531 2.25 17.652344 5.96875 17.652344 13.113281 L 17.652344 24.195312 C 17.652344 25.421875 18.691406 26.414062 19.976562 26.414062 L 26.953125 26.414062 C 28.238281 26.414062 29.277344 25.421875 29.277344 24.195312 L 29.277344 15.328125 C 29.277344 14.105469 28.238281 13.113281 26.953125 13.113281 L 22.253906 13.113281 C 22.226562 11.136719 22.429688 6.917969 24.421875 3.773438 C 24.695312 3.410156 24.726562 3.027344 24.515625 2.628906 C 24.300781 2.226562 23.960938 2.023438 23.492188 2.019531 Z M 23.492188 2.019531 "/>
</g>
</g>
</svg>
