<?xml version="1.0" encoding="UTF-8"?>
<svg xmlns="http://www.w3.org/2000/svg" xmlns:xlink="http://www.w3.org/1999/xlink" width="30pt" height="30.000001pt" viewBox="0 0 30 30.000001" version="1.2">
<defs>
<clipPath id="clip1">
  <path d="M 6.074219 0 L 24.21875 0 L 24.21875 29.03125 L 6.074219 29.03125 Z M 6.074219 0 "/>
</clipPath>
</defs>
<g id="surface1">
<g clip-path="url(#clip1)" clip-rule="nonzero">
<path style=" stroke:none;fill-rule:nonzero;fill:rgb(0%,0%,0%);fill-opacity:1;" d="M 6.074219 0.0117188 L 6.074219 2.242188 L 10.683594 2.242188 C 13.699219 2.242188 16.230469 4.109375 17.1875 6.707031 L 6.074219 6.707031 L 6.074219 8.9375 L 17.601562 8.9375 C 17.601562 12.652344 14.519531 15.632812 10.683594 15.632812 L 6.074219 15.632812 L 6.074219 18.265625 L 18.105469 29.019531 L 21.507812 29.019531 L 9.027344 17.863281 L 10.683594 17.863281 C 15.761719 17.863281 19.90625 13.855469 19.90625 8.9375 L 24.515625 8.9375 L 24.515625 6.707031 L 19.582031 6.707031 C 19.105469 4.945312 18.097656 3.410156 16.71875 2.242188 L 24.515625 2.242188 L 24.515625 0.0117188 Z M 6.074219 0.0117188 "/>
</g>
</g>
</svg>
