<?xml version="1.0" encoding="UTF-8"?>
<svg xmlns="http://www.w3.org/2000/svg" xmlns:xlink="http://www.w3.org/1999/xlink" width="30pt" height="30.000001pt" viewBox="0 0 30 30.000001" version="1.2">
<defs>
<clipPath id="clip1">
  <path d="M 19 18 L 29.515625 18 L 29.515625 29 L 19 29 Z M 19 18 "/>
</clipPath>
<clipPath id="clip2">
  <path d="M 0.484375 0 L 23 0 L 23 22 L 0.484375 22 Z M 0.484375 0 "/>
</clipPath>
</defs>
<g id="surface1">
<path style=" stroke:none;fill-rule:nonzero;fill:rgb(0%,0%,0%);fill-opacity:1;" d="M 17.371094 18.695312 L 19.179688 16.886719 L 22.851562 20.558594 L 21.042969 22.367188 Z M 17.371094 18.695312 "/>
<g clip-path="url(#clip1)" clip-rule="nonzero">
<path style=" stroke:none;fill-rule:nonzero;fill:rgb(0%,0%,0%);fill-opacity:1;" d="M 28.652344 24.308594 C 29.449219 25.105469 29.449219 26.402344 28.652344 27.203125 L 27.6875 28.167969 C 26.886719 28.96875 25.589844 28.96875 24.792969 28.167969 L 19.621094 22.996094 C 18.820312 22.195312 18.820312 20.898438 19.617188 20.097656 L 20.582031 19.132812 C 21.382812 18.335938 22.679688 18.335938 23.480469 19.132812 Z M 28.652344 24.308594 "/>
</g>
<g clip-path="url(#clip2)" clip-rule="nonzero">
<path style=" stroke:none;fill-rule:nonzero;fill:rgb(0%,0%,0%);fill-opacity:1;" d="M 11.46875 -0.0117188 C 5.394531 -0.0117188 0.46875 4.910156 0.46875 10.984375 C 0.46875 17.0625 5.394531 21.984375 11.46875 21.984375 C 17.542969 21.984375 22.46875 17.0625 22.46875 10.984375 C 22.46875 4.910156 17.542969 -0.0117188 11.46875 -0.0117188 Z M 11.46875 19.949219 C 6.515625 19.949219 2.503906 15.9375 2.503906 10.984375 C 2.503906 6.03125 6.515625 2.019531 11.46875 2.019531 C 16.421875 2.019531 20.433594 6.03125 20.433594 10.984375 C 20.433594 15.9375 16.421875 19.949219 11.46875 19.949219 Z M 11.46875 19.949219 "/>
</g>
<path style=" stroke:none;fill-rule:nonzero;fill:rgb(0%,0%,0%);fill-opacity:1;" d="M 13.722656 16.429688 C 9.335938 16.429688 5.777344 12.871094 5.777344 8.484375 C 5.777344 8.367188 5.789062 8.253906 5.796875 8.136719 C 5.214844 9.074219 4.875 10.175781 4.875 11.355469 C 4.875 14.75 7.628906 17.5 11.019531 17.5 C 12.328125 17.5 13.539062 17.085938 14.539062 16.386719 C 14.269531 16.417969 14 16.429688 13.722656 16.429688 Z M 13.722656 16.429688 "/>
</g>
</svg>
