<?xml version="1.0" encoding="UTF-8"?>
<svg xmlns="http://www.w3.org/2000/svg" xmlns:xlink="http://www.w3.org/1999/xlink" width="30pt" height="30.000001pt" viewBox="0 0 30 30.000001" version="1.2">
<defs>
<clipPath id="clip1">
  <path d="M 2.289062 0.753906 L 27.679688 0.753906 L 27.679688 28.335938 L 2.289062 28.335938 Z M 2.289062 0.753906 "/>
</clipPath>
</defs>
<g id="surface1">
<g clip-path="url(#clip1)" clip-rule="nonzero">
<path style=" stroke:none;fill-rule:nonzero;fill:rgb(0%,0%,0%);fill-opacity:1;" d="M 14.984375 0.753906 C 11.496094 0.753906 8.640625 3.628906 8.640625 7.136719 L 4.410156 7.136719 C 3.847656 7.136719 3.386719 7.574219 3.355469 8.140625 L 2.296875 27.28125 C 2.28125 27.574219 2.386719 27.863281 2.585938 28.070312 C 2.785156 28.285156 3.066406 28.402344 3.355469 28.402344 L 26.613281 28.402344 C 26.902344 28.402344 27.183594 28.285156 27.382812 28.070312 C 27.578125 27.863281 27.6875 27.574219 27.671875 27.28125 L 26.613281 8.140625 C 26.578125 7.574219 26.117188 7.136719 25.554688 7.136719 L 21.328125 7.136719 C 21.328125 3.628906 18.46875 0.753906 14.984375 0.753906 Z M 14.984375 2.882812 C 17.3125 2.882812 19.210938 4.792969 19.210938 7.136719 L 10.753906 7.136719 C 10.753906 4.792969 12.652344 2.882812 14.984375 2.882812 Z M 5.410156 9.261719 L 8.640625 9.261719 L 8.640625 13.515625 L 10.753906 13.515625 L 10.753906 9.261719 L 19.210938 9.261719 L 19.210938 13.515625 L 21.328125 13.515625 L 21.328125 9.261719 L 24.554688 9.261719 L 25.488281 26.277344 L 4.476562 26.277344 Z M 5.410156 9.261719 "/>
</g>
</g>
</svg>
