<?xml version="1.0" encoding="UTF-8"?>
<svg xmlns="http://www.w3.org/2000/svg" xmlns:xlink="http://www.w3.org/1999/xlink" width="30pt" height="30.000001pt" viewBox="0 0 30 30.000001" version="1.2">
<defs>
<clipPath id="clip1">
  <path d="M 9.453125 1.632812 L 26.148438 1.632812 L 26.148438 27.761719 L 9.453125 27.761719 Z M 9.453125 1.632812 "/>
</clipPath>
</defs>
<g id="surface1">
<g clip-path="url(#clip1)" clip-rule="nonzero">
<path style=" stroke:none;fill-rule:nonzero;fill:rgb(0%,0%,0%);fill-opacity:1;" d="M 31.796875 1.613281 C 31.605469 1.613281 31.417969 1.65625 31.242188 1.730469 C 31.0625 1.808594 30.90625 1.917969 30.773438 2.054688 C 30.636719 2.195312 30.535156 2.355469 30.464844 2.535156 C 30.390625 2.714844 30.359375 2.902344 30.359375 3.09375 L 30.359375 22.125 L 27.707031 22.125 C 26.878906 22.125 26.464844 23.132812 27.050781 23.722656 L 30.933594 27.613281 C 31.425781 28.105469 32.21875 28.105469 32.710938 27.613281 L 36.59375 23.722656 C 37.179688 23.132812 36.761719 22.125 35.933594 22.125 L 33.28125 22.125 L 33.28125 3.09375 C 33.285156 2.898438 33.25 2.707031 33.175781 2.523438 C 33.101562 2.339844 32.992188 2.179688 32.851562 2.039062 C 32.714844 1.898438 32.550781 1.792969 32.367188 1.71875 C 32.1875 1.644531 31.996094 1.609375 31.796875 1.613281 Z M 11.375 1.632812 C 11.179688 1.628906 10.988281 1.664062 10.808594 1.738281 C 10.625 1.808594 10.464844 1.914062 10.328125 2.054688 C 10.1875 2.191406 10.082031 2.351562 10.003906 2.53125 C 9.929688 2.710938 9.890625 2.898438 9.890625 3.09375 C 9.890625 3.292969 9.929688 3.480469 10.003906 3.660156 C 10.082031 3.839844 10.1875 4 10.328125 4.136719 C 10.464844 4.277344 10.628906 4.382812 10.808594 4.453125 C 10.988281 4.527344 11.179688 4.5625 11.375 4.558594 L 12.835938 4.558594 C 13.03125 4.5625 13.21875 4.527344 13.398438 4.453125 C 13.582031 4.382812 13.742188 4.277344 13.878906 4.136719 C 14.019531 4 14.125 3.839844 14.203125 3.660156 C 14.277344 3.480469 14.316406 3.292969 14.316406 3.09375 C 14.316406 2.898438 14.277344 2.710938 14.203125 2.53125 C 14.125 2.351562 14.019531 2.191406 13.878906 2.054688 C 13.742188 1.914062 13.582031 1.808594 13.398438 1.738281 C 13.21875 1.664062 13.03125 1.628906 12.835938 1.632812 Z M 11.375 7.488281 C 11.179688 7.484375 10.988281 7.519531 10.808594 7.59375 C 10.625 7.664062 10.464844 7.769531 10.328125 7.910156 C 10.1875 8.046875 10.082031 8.207031 10.003906 8.386719 C 9.929688 8.566406 9.890625 8.753906 9.890625 8.953125 C 9.890625 9.148438 9.929688 9.335938 10.003906 9.515625 C 10.082031 9.695312 10.1875 9.855469 10.328125 9.992188 C 10.464844 10.132812 10.628906 10.238281 10.808594 10.308594 C 10.988281 10.382812 11.179688 10.417969 11.375 10.414062 L 15.753906 10.414062 C 15.949219 10.417969 16.140625 10.382812 16.320312 10.308594 C 16.5 10.238281 16.664062 10.132812 16.800781 9.992188 C 16.941406 9.855469 17.046875 9.695312 17.125 9.515625 C 17.199219 9.335938 17.238281 9.148438 17.238281 8.953125 C 17.238281 8.753906 17.199219 8.566406 17.125 8.386719 C 17.046875 8.207031 16.941406 8.046875 16.800781 7.910156 C 16.664062 7.769531 16.5 7.664062 16.320312 7.59375 C 16.140625 7.519531 15.949219 7.484375 15.753906 7.488281 Z M 11.375 13.34375 C 11.179688 13.339844 10.988281 13.375 10.808594 13.449219 C 10.628906 13.523438 10.464844 13.628906 10.328125 13.765625 C 10.1875 13.902344 10.082031 14.0625 10.003906 14.242188 C 9.929688 14.421875 9.890625 14.609375 9.890625 14.808594 C 9.890625 15.003906 9.929688 15.191406 10.003906 15.371094 C 10.082031 15.554688 10.1875 15.710938 10.328125 15.851562 C 10.464844 15.988281 10.628906 16.09375 10.808594 16.164062 C 10.988281 16.238281 11.179688 16.273438 11.375 16.269531 L 18.675781 16.269531 C 18.871094 16.273438 19.058594 16.238281 19.242188 16.164062 C 19.421875 16.09375 19.582031 15.988281 19.722656 15.851562 C 19.863281 15.710938 19.96875 15.554688 20.042969 15.371094 C 20.121094 15.191406 20.15625 15.003906 20.15625 14.808594 C 20.15625 14.609375 20.121094 14.421875 20.042969 14.242188 C 19.96875 14.0625 19.863281 13.902344 19.722656 13.765625 C 19.582031 13.628906 19.421875 13.523438 19.242188 13.449219 C 19.058594 13.375 18.871094 13.339844 18.675781 13.34375 Z M 11.375 19.199219 C 11.179688 19.195312 10.988281 19.230469 10.808594 19.304688 C 10.628906 19.378906 10.464844 19.484375 10.328125 19.621094 C 10.1875 19.757812 10.082031 19.917969 10.003906 20.097656 C 9.929688 20.277344 9.890625 20.46875 9.890625 20.664062 C 9.890625 20.859375 9.929688 21.046875 10.003906 21.226562 C 10.082031 21.410156 10.1875 21.566406 10.328125 21.707031 C 10.464844 21.84375 10.628906 21.949219 10.808594 22.019531 C 10.988281 22.09375 11.179688 22.128906 11.375 22.125 L 21.597656 22.125 C 21.792969 22.128906 21.980469 22.09375 22.164062 22.019531 C 22.34375 21.949219 22.503906 21.84375 22.644531 21.707031 C 22.78125 21.566406 22.890625 21.410156 22.964844 21.226562 C 23.039062 21.046875 23.078125 20.859375 23.078125 20.664062 C 23.078125 20.46875 23.039062 20.277344 22.964844 20.097656 C 22.890625 19.917969 22.78125 19.757812 22.644531 19.621094 C 22.503906 19.484375 22.34375 19.378906 22.164062 19.304688 C 21.980469 19.230469 21.792969 19.195312 21.597656 19.199219 Z M 11.375 25.054688 C 11.179688 25.050781 10.988281 25.085938 10.808594 25.160156 C 10.625 25.234375 10.464844 25.339844 10.328125 25.476562 C 10.1875 25.613281 10.082031 25.773438 10.003906 25.953125 C 9.929688 26.132812 9.890625 26.324219 9.890625 26.519531 C 9.890625 26.714844 9.929688 26.902344 10.003906 27.082031 C 10.082031 27.265625 10.1875 27.421875 10.328125 27.5625 C 10.464844 27.699219 10.628906 27.804688 10.808594 27.878906 C 10.988281 27.949219 11.179688 27.984375 11.375 27.980469 L 24.519531 27.980469 C 24.714844 27.984375 24.902344 27.949219 25.082031 27.878906 C 25.265625 27.804688 25.425781 27.699219 25.566406 27.5625 C 25.703125 27.421875 25.8125 27.265625 25.886719 27.082031 C 25.960938 26.902344 26 26.714844 26 26.519531 C 26 26.324219 25.960938 26.132812 25.886719 25.953125 C 25.8125 25.773438 25.703125 25.613281 25.566406 25.476562 C 25.425781 25.339844 25.265625 25.234375 25.082031 25.160156 C 24.902344 25.085938 24.714844 25.050781 24.519531 25.054688 Z M 11.375 25.054688 "/>
</g>
<path style=" stroke:none;fill-rule:nonzero;fill:rgb(12.939453%,11.369324%,11.369324%);fill-opacity:1;" d="M 5.902344 1.40625 L 4.71875 3.191406 C 4.644531 3.3125 4.667969 3.46875 4.789062 3.554688 C 4.90625 3.640625 5.0625 3.605469 5.144531 3.484375 L 5.851562 2.417969 L 5.851562 26.273438 L 5.136719 25.1875 C 5.0625 25.066406 4.898438 25.042969 4.78125 25.121094 C 4.660156 25.199219 4.625 25.351562 4.703125 25.476562 L 5.886719 27.269531 C 5.9375 27.339844 6.015625 27.382812 6.101562 27.382812 C 6.183594 27.382812 6.261719 27.339844 6.3125 27.269531 L 7.496094 25.476562 C 7.523438 25.429688 7.539062 25.378906 7.539062 25.328125 C 7.539062 25.242188 7.496094 25.164062 7.429688 25.109375 C 7.308594 25.03125 7.15625 25.058594 7.070312 25.179688 L 6.355469 26.261719 L 6.355469 2.375 L 7.085938 3.476562 C 7.164062 3.597656 7.324219 3.625 7.445312 3.546875 C 7.523438 3.492188 7.554688 3.417969 7.554688 3.328125 C 7.554688 3.277344 7.539062 3.226562 7.511719 3.183594 L 6.328125 1.386719 C 6.277344 1.320312 6.203125 1.273438 6.117188 1.273438 C 6.03125 1.273438 5.945312 1.328125 5.902344 1.40625 Z M 5.902344 1.40625 "/>
</g>
</svg>
