<?xml version="1.0" encoding="UTF-8"?>
<svg xmlns="http://www.w3.org/2000/svg" xmlns:xlink="http://www.w3.org/1999/xlink" width="30pt" height="30.000001pt" viewBox="0 0 30 30.000001" version="1.2">
<defs>
<clipPath id="clip1">
  <path d="M 0.542969 2.394531 L 29.457031 2.394531 L 29.457031 26.347656 L 0.542969 26.347656 Z M 0.542969 2.394531 "/>
</clipPath>
</defs>
<g id="surface1">
<g clip-path="url(#clip1)" clip-rule="nonzero">
<path style=" stroke:none;fill-rule:nonzero;fill:rgb(6.269836%,5.879211%,5.099487%);fill-opacity:1;" d="M 2.242188 15 C 1.46875 14.847656 0.71875 15.359375 0.566406 16.148438 C 0.417969 16.933594 0.921875 17.699219 1.695312 17.851562 C 2.542969 18.023438 3.5625 18.875 4.597656 20.070312 C 5.960938 21.640625 7.261719 23.757812 8.246094 25.792969 L 8.242188 25.796875 C 8.589844 26.515625 9.445312 26.816406 10.152344 26.460938 C 10.414062 26.328125 10.621094 26.125 10.757812 25.886719 C 13.011719 22.160156 15.601562 18.542969 18.589844 15.070312 C 21.601562 11.578125 25.023438 8.199219 28.933594 4.976562 C 29.542969 4.46875 29.636719 3.554688 29.140625 2.933594 C 28.644531 2.3125 27.75 2.21875 27.136719 2.722656 C 23.105469 6.054688 19.5625 9.539062 16.449219 13.160156 C 13.894531 16.128906 11.632812 19.175781 9.621094 22.289062 C 8.753906 20.792969 7.761719 19.34375 6.730469 18.148438 C 5.304688 16.503906 3.753906 15.304688 2.242188 15 "/>
</g>
</g>
</svg>
