<?xml version="1.0" encoding="UTF-8"?>
<svg xmlns="http://www.w3.org/2000/svg" xmlns:xlink="http://www.w3.org/1999/xlink" width="30pt" height="30.000001pt" viewBox="0 0 30 30.000001" version="1.2">
<defs>
<clipPath id="clip1">
  <path d="M 0.542969 2.394531 L 29.457031 2.394531 L 29.457031 26.347656 L 0.542969 26.347656 Z M 0.542969 2.394531 "/>
</clipPath>
</defs>
<g id="surface1">
<g clip-path="url(#clip1)" clip-rule="nonzero">
<path style=" stroke:none;fill-rule:nonzero;fill:rgb(100%,100%,100%);fill-opacity:1;" d="M 2.242188 14.878906 C 1.46875 14.730469 0.71875 15.238281 0.566406 16.015625 C 0.417969 16.796875 0.921875 17.554688 1.695312 17.707031 C 2.542969 17.875 3.5625 18.71875 4.597656 19.902344 C 5.960938 21.460938 7.261719 23.554688 8.246094 25.574219 L 8.242188 25.574219 C 8.589844 26.289062 9.445312 26.582031 10.152344 26.230469 C 10.414062 26.101562 10.621094 25.902344 10.757812 25.667969 C 13.011719 21.972656 15.601562 18.390625 18.589844 14.953125 C 21.601562 11.488281 25.023438 8.144531 28.933594 4.949219 C 29.542969 4.449219 29.636719 3.542969 29.140625 2.929688 C 28.644531 2.3125 27.75 2.21875 27.136719 2.71875 C 23.105469 6.019531 19.5625 9.472656 16.449219 13.058594 C 13.894531 16 11.632812 19.015625 9.621094 22.101562 C 8.753906 20.617188 7.761719 19.183594 6.730469 18 C 5.304688 16.371094 3.753906 15.183594 2.242188 14.878906 "/>
</g>
</g>
</svg>
