<?xml version="1.0" encoding="UTF-8"?>
<svg xmlns="http://www.w3.org/2000/svg" xmlns:xlink="http://www.w3.org/1999/xlink" width="30pt" height="30.000001pt" viewBox="0 0 30 30.000001" version="1.2">
<defs>
<clipPath id="clip1">
  <path d="M 0.484375 0 L 29.515625 0 L 29.515625 29.03125 L 0.484375 29.03125 Z M 0.484375 0 "/>
</clipPath>
</defs>
<g id="surface1">
<g clip-path="url(#clip1)" clip-rule="nonzero">
<path style=" stroke:none;fill-rule:evenodd;fill:rgb(0%,0%,0%);fill-opacity:1;" d="M 15 0 C 22.984375 0 29.515625 6.53125 29.515625 14.515625 C 29.515625 22.5 22.984375 29.03125 15 29.03125 C 7.015625 29.03125 0.484375 22.5 0.484375 14.515625 C 0.484375 6.53125 7.015625 0 15 0 "/>
</g>
<path style=" stroke:none;fill-rule:evenodd;fill:rgb(100%,100%,99.609375%);fill-opacity:1;" d="M 12.066406 16.742188 L 20.429688 8.378906 C 21.148438 7.660156 22.316406 7.660156 23.035156 8.378906 C 23.753906 9.101562 23.753906 10.265625 23.035156 10.988281 L 13.378906 20.644531 C 13.375 20.644531 13.375 20.648438 13.371094 20.652344 C 12.652344 21.371094 11.484375 21.371094 10.761719 20.652344 L 10.414062 20.304688 L 6.964844 16.851562 C 6.246094 16.132812 6.246094 14.964844 6.964844 14.246094 C 7.683594 13.527344 8.851562 13.527344 9.570312 14.246094 L 12.066406 16.742188 "/>
</g>
</svg>
