<?xml version="1.0" encoding="UTF-8"?>
<svg xmlns="http://www.w3.org/2000/svg" xmlns:xlink="http://www.w3.org/1999/xlink" width="30pt" height="30.000001pt" viewBox="0 0 30 30.000001" version="1.2">
<defs>
<clipPath id="clip1">
  <path d="M 0.484375 0 L 29.515625 0 L 29.515625 29.03125 L 0.484375 29.03125 Z M 0.484375 0 "/>
</clipPath>
</defs>
<g id="surface1">
<g clip-path="url(#clip1)" clip-rule="nonzero">
<path style=" stroke:none;fill-rule:nonzero;fill:rgb(0%,0%,0%);fill-opacity:1;" d="M 29.503906 14.523438 C 29.503906 22.535156 23.007812 29.03125 14.992188 29.03125 C 6.980469 29.03125 0.484375 22.535156 0.484375 14.523438 C 0.484375 6.511719 6.980469 0.0117188 14.992188 0.0117188 C 23.007812 0.0117188 29.503906 6.511719 29.503906 14.523438 Z M 29.503906 14.523438 "/>
</g>
<path style=" stroke:none;fill-rule:nonzero;fill:rgb(94.509888%,94.898987%,94.898987%);fill-opacity:1;" d="M 23.878906 10.441406 C 23.257812 10.714844 22.589844 10.902344 21.886719 10.988281 C 22.605469 10.558594 23.152344 9.878906 23.414062 9.070312 C 22.742188 9.464844 22 9.753906 21.210938 9.910156 C 20.578125 9.234375 19.675781 8.816406 18.679688 8.816406 C 16.765625 8.816406 15.210938 10.367188 15.210938 12.28125 C 15.210938 12.554688 15.242188 12.820312 15.300781 13.074219 C 12.417969 12.929688 9.863281 11.546875 8.152344 9.449219 C 7.855469 9.960938 7.683594 10.558594 7.683594 11.191406 C 7.683594 12.394531 8.296875 13.457031 9.226562 14.078125 C 8.65625 14.0625 8.125 13.90625 7.65625 13.644531 C 7.65625 13.660156 7.65625 13.675781 7.65625 13.6875 C 7.65625 15.367188 8.851562 16.769531 10.4375 17.089844 C 10.144531 17.167969 9.839844 17.210938 9.523438 17.210938 C 9.300781 17.210938 9.082031 17.191406 8.871094 17.148438 C 9.3125 18.527344 10.59375 19.53125 12.109375 19.558594 C 10.925781 20.488281 9.429688 21.042969 7.804688 21.042969 C 7.523438 21.042969 7.246094 21.027344 6.976562 20.992188 C 8.511719 21.976562 10.332031 22.550781 12.292969 22.550781 C 18.671875 22.550781 22.160156 17.265625 22.160156 12.683594 C 22.160156 12.535156 22.15625 12.386719 22.148438 12.234375 C 22.828125 11.746094 23.414062 11.136719 23.878906 10.441406 Z M 23.878906 10.441406 "/>
</g>
</svg>
