<?xml version="1.0" encoding="UTF-8"?>
<svg xmlns="http://www.w3.org/2000/svg" xmlns:xlink="http://www.w3.org/1999/xlink" width="30pt" height="30.000001pt" viewBox="0 0 30 30.000001" version="1.2">
<defs>
<clipPath id="clip1">
  <path d="M 4.039062 16 L 25.679688 16 L 25.679688 29.03125 L 4.039062 29.03125 Z M 4.039062 16 "/>
</clipPath>
</defs>
<g id="surface1">
<path style=" stroke:none;fill-rule:nonzero;fill:rgb(6.269836%,5.879211%,5.099487%);fill-opacity:1;" d="M 14.855469 1.476562 C 18.003906 1.476562 20.566406 4.070312 20.566406 7.257812 C 20.566406 10.445312 18.003906 13.039062 14.855469 13.039062 C 11.707031 13.039062 9.144531 10.445312 9.144531 7.257812 C 9.144531 4.070312 11.707031 1.476562 14.855469 1.476562 Z M 14.855469 14.515625 C 18.808594 14.515625 22.023438 11.261719 22.023438 7.257812 C 22.023438 3.257812 18.808594 0 14.855469 0 C 10.902344 0 7.6875 3.257812 7.6875 7.257812 C 7.6875 11.261719 10.902344 14.515625 14.855469 14.515625 "/>
<g clip-path="url(#clip1)" clip-rule="nonzero">
<path style=" stroke:none;fill-rule:nonzero;fill:rgb(6.269836%,5.879211%,5.099487%);fill-opacity:1;" d="M 24.195312 27.554688 L 5.515625 27.554688 L 5.515625 23.570312 C 5.515625 20.296875 8.144531 17.636719 11.375 17.636719 L 18.339844 17.636719 C 21.570312 17.636719 24.195312 20.296875 24.195312 23.570312 Z M 18.339844 16.160156 L 11.375 16.160156 C 7.339844 16.160156 4.058594 19.484375 4.058594 23.570312 L 4.058594 28.292969 C 4.058594 28.703125 4.386719 29.03125 4.789062 29.03125 L 24.925781 29.03125 C 25.328125 29.03125 25.65625 28.703125 25.65625 28.292969 L 25.65625 23.570312 C 25.65625 19.484375 22.375 16.160156 18.339844 16.160156 "/>
</g>
</g>
</svg>
