<?xml version="1.0" encoding="UTF-8"?>
<svg xmlns="http://www.w3.org/2000/svg" xmlns:xlink="http://www.w3.org/1999/xlink" width="30pt" height="30.000001pt" viewBox="0 0 30 30.000001" version="1.2">
<defs>
<clipPath id="clip1">
  <path d="M 0.484375 0 L 29.515625 0 L 29.515625 29.03125 L 0.484375 29.03125 Z M 0.484375 0 "/>
</clipPath>
</defs>
<g id="surface1">
<g clip-path="url(#clip1)" clip-rule="nonzero">
<path style=" stroke:none;fill-rule:nonzero;fill:rgb(0%,0%,0%);fill-opacity:1;" d="M 15.015625 0 C 7.023438 0 0.519531 6.5 0.515625 14.492188 C 0.511719 17.046875 1.183594 19.542969 2.453125 21.738281 L 0.484375 29.03125 L 8.078125 27.238281 C 10.195312 28.394531 12.582031 29 15.007812 29 L 15.015625 29 C 23.003906 29 29.507812 22.5 29.511719 14.507812 C 29.515625 10.632812 28.007812 6.992188 25.273438 4.25 C 22.535156 1.511719 18.894531 0 15.015625 0 Z M 15.015625 2.902344 C 18.113281 2.90625 21.027344 4.113281 23.21875 6.300781 C 25.410156 8.496094 26.613281 11.40625 26.609375 14.503906 C 26.605469 20.898438 21.40625 26.097656 15.011719 26.097656 C 13.078125 26.097656 11.160156 25.609375 9.472656 24.6875 L 8.492188 24.15625 L 7.414062 24.410156 L 4.554688 25.085938 L 5.253906 22.496094 L 5.566406 21.332031 L 4.964844 20.289062 C 3.953125 18.535156 3.417969 16.53125 3.417969 14.492188 C 3.421875 8.101562 8.621094 2.902344 15.015625 2.902344 Z M 9.886719 7.800781 C 9.644531 7.800781 9.25 7.894531 8.917969 8.257812 C 8.585938 8.617188 7.648438 9.492188 7.648438 11.277344 C 7.648438 13.058594 8.945312 14.78125 9.128906 15.023438 C 9.308594 15.265625 11.636719 19.039062 15.316406 20.488281 C 18.378906 21.695312 19 21.457031 19.664062 21.398438 C 20.328125 21.335938 21.808594 20.523438 22.109375 19.675781 C 22.414062 18.828125 22.414062 18.101562 22.324219 17.953125 C 22.234375 17.800781 21.992188 17.710938 21.628906 17.53125 C 21.265625 17.347656 19.484375 16.472656 19.152344 16.351562 C 18.820312 16.234375 18.578125 16.171875 18.335938 16.535156 C 18.097656 16.898438 17.402344 17.710938 17.191406 17.953125 C 16.980469 18.195312 16.769531 18.226562 16.40625 18.046875 C 16.042969 17.863281 14.875 17.480469 13.492188 16.246094 C 12.414062 15.285156 11.6875 14.101562 11.476562 13.738281 C 11.265625 13.378906 11.457031 13.179688 11.636719 13 C 11.800781 12.835938 11.996094 12.574219 12.179688 12.363281 C 12.359375 12.152344 12.421875 12 12.542969 11.761719 C 12.664062 11.519531 12.601562 11.308594 12.511719 11.125 C 12.421875 10.945312 11.714844 9.15625 11.394531 8.4375 C 11.121094 7.835938 10.835938 7.820312 10.578125 7.8125 C 10.367188 7.800781 10.125 7.800781 9.886719 7.800781 Z M 9.886719 7.800781 "/>
</g>
</g>
</svg>
