<?xml version="1.0" encoding="UTF-8"?>
<svg xmlns="http://www.w3.org/2000/svg" xmlns:xlink="http://www.w3.org/1999/xlink" width="30pt" height="30.000001pt" viewBox="0 0 30 30.000001" version="1.2">
<defs>
<clipPath id="clip1">
  <path d="M 1.242188 2 L 28.824219 2 L 28.824219 27 L 1.242188 27 Z M 1.242188 2 "/>
</clipPath>
</defs>
<g id="surface1">
<g clip-path="url(#clip1)" clip-rule="nonzero">
<path style=" stroke:none;fill-rule:nonzero;fill:rgb(72.158813%,72.158813%,72.158813%);fill-opacity:1;" d="M 9.125 2.132812 C 5.128906 2.132812 1.84375 5.121094 1.351562 8.949219 C 1.28125 9.261719 1.242188 9.589844 1.242188 9.957031 C 1.242188 14.429688 4.683594 18.464844 7.96875 21.460938 C 11.246094 24.464844 14.527344 26.441406 14.527344 26.441406 L 15.035156 26.757812 L 15.542969 26.441406 C 15.542969 26.441406 18.820312 24.464844 22.105469 21.460938 C 25.382812 18.464844 28.824219 14.429688 28.824219 9.957031 C 28.824219 9.589844 28.785156 9.269531 28.722656 8.964844 C 28.222656 5.121094 24.945312 2.132812 20.945312 2.132812 C 18.496094 2.132812 16.472656 3.402344 15.035156 5.144531 C 13.59375 3.402344 11.570312 2.132812 9.125 2.132812 Z M 9.125 4.089844 C 11.292969 4.089844 13.15625 5.25 14.1875 6.976562 L 15.035156 8.398438 L 15.878906 6.976562 C 16.910156 5.25 18.773438 4.089844 20.945312 4.089844 C 23.96875 4.089844 26.414062 6.328125 26.777344 9.238281 L 26.792969 9.316406 C 26.832031 9.5 26.855469 9.707031 26.855469 9.957031 C 26.855469 13.382812 23.890625 17.171875 20.765625 20.023438 C 17.902344 22.644531 15.488281 24.105469 15.035156 24.386719 C 14.578125 24.105469 12.164062 22.644531 9.292969 20.023438 C 6.175781 17.171875 3.214844 13.382812 3.214844 9.957031 C 3.214844 9.699219 3.234375 9.492188 3.273438 9.316406 L 3.289062 9.269531 L 3.289062 9.226562 C 3.660156 6.328125 6.097656 4.089844 9.125 4.089844 Z M 9.125 4.089844 "/>
</g>
</g>
</svg>
