<?xml version="1.0" encoding="UTF-8"?>
<svg xmlns="http://www.w3.org/2000/svg" xmlns:xlink="http://www.w3.org/1999/xlink" width="30pt" height="30.000001pt" viewBox="0 0 30 30.000001" version="1.2">
<defs>
<clipPath id="clip1">
  <path d="M 1.242188 2 L 28.824219 2 L 28.824219 27 L 1.242188 27 Z M 1.242188 2 "/>
</clipPath>
<clipPath id="clip2">
  <path d="M 15 14.515625 L 26.613281 14.515625 L 26.613281 26.128906 L 15 26.128906 Z M 15 14.515625 "/>
</clipPath>
</defs>
<g id="surface1">
<g clip-path="url(#clip1)" clip-rule="nonzero">
<path style=" stroke:none;fill-rule:nonzero;fill:rgb(0%,0%,0%);fill-opacity:1;" d="M 9.144531 2.128906 C 5.140625 2.128906 1.84375 5.105469 1.351562 8.917969 C 1.28125 9.230469 1.242188 9.554688 1.242188 9.921875 C 1.242188 14.371094 4.691406 18.390625 7.984375 21.371094 C 11.273438 24.363281 14.558594 26.332031 14.558594 26.332031 L 15.066406 26.644531 L 15.578125 26.332031 C 15.578125 26.332031 18.863281 24.363281 22.15625 21.371094 C 25.445312 18.390625 28.890625 14.371094 28.890625 9.921875 C 28.890625 9.554688 28.851562 9.238281 28.792969 8.933594 C 28.289062 5.105469 25.003906 2.128906 20.992188 2.128906 C 18.539062 2.128906 16.511719 3.394531 15.066406 5.128906 C 13.625 3.394531 11.597656 2.128906 9.144531 2.128906 Z M 9.144531 4.078125 C 11.316406 4.078125 13.183594 5.234375 14.21875 6.953125 L 15.066406 8.371094 L 15.917969 6.953125 C 16.949219 5.234375 18.816406 4.078125 20.992188 4.078125 C 24.023438 4.078125 26.476562 6.308594 26.839844 9.207031 L 26.855469 9.28125 C 26.894531 9.464844 26.917969 9.671875 26.917969 9.921875 C 26.917969 13.332031 23.945312 17.105469 20.816406 19.941406 C 17.945312 22.550781 15.523438 24.003906 15.066406 24.285156 C 14.613281 24.003906 12.191406 22.550781 9.3125 19.941406 C 6.1875 17.105469 3.21875 13.332031 3.21875 9.921875 C 3.21875 9.664062 3.242188 9.457031 3.28125 9.28125 L 3.296875 9.238281 L 3.296875 9.191406 C 3.664062 6.308594 6.109375 4.078125 9.144531 4.078125 Z M 9.144531 4.078125 "/>
</g>
<path style=" stroke:none;fill-rule:nonzero;fill:rgb(100%,100%,100%);fill-opacity:1;" d="M 20.804688 14.515625 C 20.425781 14.515625 20.046875 14.554688 19.671875 14.628906 C 19.300781 14.703125 18.9375 14.8125 18.585938 14.957031 C 18.230469 15.105469 17.898438 15.28125 17.582031 15.496094 C 17.261719 15.707031 16.96875 15.945312 16.699219 16.21875 C 16.429688 16.488281 16.191406 16.78125 15.980469 17.097656 C 15.765625 17.414062 15.585938 17.75 15.441406 18.101562 C 15.296875 18.453125 15.1875 18.816406 15.113281 19.191406 C 15.039062 19.5625 15 19.941406 15 20.324219 C 15 20.703125 15.039062 21.082031 15.113281 21.457031 C 15.1875 21.828125 15.296875 22.191406 15.441406 22.542969 C 15.585938 22.898438 15.765625 23.230469 15.980469 23.546875 C 16.191406 23.867188 16.429688 24.160156 16.699219 24.429688 C 16.96875 24.699219 17.261719 24.9375 17.582031 25.152344 C 17.898438 25.363281 18.230469 25.542969 18.585938 25.6875 C 18.9375 25.832031 19.300781 25.941406 19.671875 26.015625 C 20.046875 26.09375 20.425781 26.128906 20.804688 26.128906 C 21.1875 26.128906 21.566406 26.09375 21.9375 26.015625 C 22.3125 25.941406 22.675781 25.832031 23.027344 25.6875 C 23.378906 25.542969 23.714844 25.363281 24.03125 25.152344 C 24.347656 24.9375 24.644531 24.699219 24.914062 24.429688 C 25.183594 24.160156 25.421875 23.867188 25.632812 23.546875 C 25.847656 23.230469 26.023438 22.898438 26.171875 22.542969 C 26.316406 22.191406 26.425781 21.828125 26.5 21.457031 C 26.574219 21.082031 26.613281 20.703125 26.613281 20.324219 C 26.613281 19.941406 26.574219 19.5625 26.5 19.191406 C 26.425781 18.816406 26.316406 18.453125 26.171875 18.101562 C 26.023438 17.75 25.847656 17.414062 25.632812 17.097656 C 25.421875 16.78125 25.183594 16.488281 24.914062 16.21875 C 24.644531 15.945312 24.347656 15.707031 24.03125 15.496094 C 23.714844 15.28125 23.378906 15.105469 23.027344 14.957031 C 22.675781 14.8125 22.3125 14.703125 21.9375 14.628906 C 21.566406 14.554688 21.1875 14.515625 20.804688 14.515625 Z M 20.804688 14.515625 "/>
<g clip-path="url(#clip2)" clip-rule="nonzero">
<path style=" stroke:none;fill-rule:nonzero;fill:rgb(13.729858%,12.159729%,12.548828%);fill-opacity:1;" d="M 20.804688 14.515625 C 17.605469 14.515625 15 17.121094 15 20.324219 C 15 23.523438 17.605469 26.128906 20.804688 26.128906 C 24.007812 26.128906 26.613281 23.523438 26.613281 20.324219 C 26.613281 17.121094 24.007812 14.515625 20.804688 14.515625 Z M 20.804688 25.289062 C 18.070312 25.289062 15.839844 23.058594 15.839844 20.324219 C 15.839844 17.585938 18.070312 15.359375 20.804688 15.359375 C 23.542969 15.359375 25.769531 17.585938 25.769531 20.324219 C 25.769531 23.058594 23.542969 25.289062 20.804688 25.289062 Z M 20.804688 25.289062 "/>
</g>
<path style=" stroke:none;fill-rule:nonzero;fill:rgb(13.729858%,12.159729%,12.548828%);fill-opacity:1;" d="M 23.410156 19.902344 L 21.289062 19.902344 L 21.289062 17.71875 C 21.289062 17.488281 21.101562 17.300781 20.867188 17.300781 C 20.636719 17.300781 20.445312 17.488281 20.445312 17.71875 L 20.445312 19.902344 L 18.328125 19.902344 C 18.09375 19.902344 17.90625 20.089844 17.90625 20.324219 C 17.90625 20.554688 18.09375 20.742188 18.328125 20.742188 L 20.445312 20.742188 L 20.445312 22.804688 C 20.445312 23.035156 20.636719 23.222656 20.867188 23.222656 C 21.101562 23.222656 21.289062 23.035156 21.289062 22.804688 L 21.289062 20.742188 L 23.410156 20.742188 C 23.640625 20.742188 23.828125 20.554688 23.828125 20.324219 C 23.828125 20.089844 23.640625 19.902344 23.410156 19.902344 Z M 23.410156 19.902344 "/>
</g>
</svg>
