<?xml version="1.0" encoding="UTF-8"?>
<svg xmlns="http://www.w3.org/2000/svg" xmlns:xlink="http://www.w3.org/1999/xlink" width="30pt" height="30.000001pt" viewBox="0 0 30 30.000001" version="1.2">
<defs>
<clipPath id="clip1">
  <path d="M 1.242188 2 L 28.824219 2 L 28.824219 27 L 1.242188 27 Z M 1.242188 2 "/>
</clipPath>
</defs>
<g id="surface1">
<g clip-path="url(#clip1)" clip-rule="nonzero">
<path style=" stroke:none;fill-rule:nonzero;fill:rgb(0%,0%,0%);fill-opacity:1;" d="M 9.144531 2.128906 C 5.140625 2.128906 1.84375 5.105469 1.351562 8.917969 C 1.28125 9.230469 1.242188 9.554688 1.242188 9.921875 C 1.242188 14.371094 4.691406 18.390625 7.984375 21.371094 C 11.273438 24.363281 14.558594 26.332031 14.558594 26.332031 L 15.066406 26.644531 L 15.578125 26.332031 C 15.578125 26.332031 18.863281 24.363281 22.15625 21.371094 C 25.445312 18.390625 28.890625 14.371094 28.890625 9.921875 C 28.890625 9.554688 28.851562 9.238281 28.792969 8.933594 C 28.289062 5.105469 25.003906 2.128906 20.992188 2.128906 C 18.539062 2.128906 16.511719 3.394531 15.066406 5.128906 C 13.625 3.394531 11.597656 2.128906 9.144531 2.128906 Z M 9.144531 4.078125 C 11.316406 4.078125 13.183594 5.234375 14.21875 6.953125 L 15.066406 8.371094 L 15.917969 6.953125 C 16.949219 5.234375 18.816406 4.078125 20.992188 4.078125 C 24.023438 4.078125 26.476562 6.308594 26.839844 9.207031 L 26.855469 9.28125 C 26.894531 9.464844 26.917969 9.671875 26.917969 9.921875 C 26.917969 13.332031 23.945312 17.105469 20.816406 19.941406 C 17.945312 22.550781 15.523438 24.003906 15.066406 24.285156 C 14.613281 24.003906 12.191406 22.550781 9.3125 19.941406 C 6.1875 17.105469 3.21875 13.332031 3.21875 9.921875 C 3.21875 9.664062 3.242188 9.457031 3.28125 9.28125 L 3.296875 9.238281 L 3.296875 9.191406 C 3.664062 6.308594 6.109375 4.078125 9.144531 4.078125 Z M 9.144531 4.078125 "/>
</g>
</g>
</svg>
